<svg width="17" height="18" viewBox="0 0 17 18" fill="none" xmlns="http://www.w3.org/2000/svg">
<g clip-path="url(#clip0)">
<path d="M15.4878 5.6221L4.86809 3.59931L4.56027 1.98329C4.47031 1.50958 4.053 1.16577 3.56793 1.16577H1.17163C0.662668 1.16577 0.25 1.57844 0.25 2.0874C0.25 2.59636 0.662668 3.00903 1.17163 3.00903H2.87929L3.22147 4.80539C3.22346 4.81976 4.35389 11.4903 4.35389 11.4903C4.48469 12.2615 5.22693 12.8889 6.00833 12.8889H14.6393C15.4293 12.8889 16.1489 12.2501 16.2432 11.465L16.7394 7.33389C16.8347 6.53959 16.2733 5.77177 15.4878 5.6221Z" fill="#EEF9FF"/>
<path d="M6.35009 13.8586C5.44358 13.8586 4.70605 14.5962 4.70605 15.5028C4.70605 16.4093 5.44358 17.1469 6.35009 17.1469C7.25668 17.1469 7.9942 16.4093 7.9942 15.5028C7.9942 14.5962 7.25668 13.8586 6.35009 13.8586Z" fill="#EEF9FF"/>
<path d="M13.587 13.8586C12.6804 13.8586 11.9429 14.5962 11.9429 15.5028C11.9429 16.4093 12.6804 17.1469 13.587 17.1469C14.4936 17.1469 15.2311 16.4093 15.2311 15.5028C15.2311 14.5962 14.4936 13.8586 13.587 13.8586Z" fill="#EEF9FF"/>
</g>
<defs>
<clipPath id="clip0">
<rect width="16.5" height="16.5" fill="white" transform="translate(0.25 0.90625)"/>
</clipPath>
</defs>
</svg>
