<svg width="24" height="25" viewBox="0 0 24 25" fill="none" xmlns="http://www.w3.org/2000/svg">
<g clip-path="url(#clip0)">
<path d="M22.1221 6.86053L6.78105 3.91829L6.33638 1.56772C6.20644 0.878679 5.6036 0.378601 4.90287 0.378601H1.44123C0.705994 0.378601 0.109863 0.978845 0.109863 1.71915C0.109863 2.45945 0.705994 3.0597 1.44123 3.0597H3.90808L4.40239 5.67259C4.40526 5.6935 6.03826 15.3961 6.03826 15.3961C6.22721 16.5178 7.29943 17.4305 8.42822 17.4305H20.8964C22.0376 17.4305 23.077 16.5013 23.2133 15.3593L23.9301 9.35041C24.0678 8.19507 23.2567 7.07823 22.1221 6.86053Z" fill="#FFBD12"/>
<path d="M8.92182 18.841C7.61229 18.841 6.54688 19.9137 6.54688 21.2324C6.54688 22.5511 7.61229 23.6238 8.92182 23.6238C10.2315 23.6238 11.2969 22.5511 11.2969 21.2324C11.2969 19.9137 10.2315 18.841 8.92182 18.841Z" fill="#FFBD12"/>
<path d="M19.376 18.841C18.0664 18.841 17.001 19.9137 17.001 21.2324C17.001 22.5511 18.0664 23.6238 19.376 23.6238C20.6857 23.6238 21.7511 22.5511 21.7511 21.2324C21.7511 19.9137 20.6857 18.841 19.376 18.841Z" fill="#FFBD12"/>
</g>
<defs>
<clipPath id="clip0">
<rect width="23.8355" height="24" fill="white" transform="translate(0.109863 0.0012207)"/>
</clipPath>
</defs>
</svg>
