<svg width="25" height="26" viewBox="0 0 25 26" fill="none" xmlns="http://www.w3.org/2000/svg">
<g clip-path="url(#clip0)">
<path d="M22.5271 7.77893L6.85989 4.79473L6.40577 2.41064C6.27306 1.71177 5.65741 1.20456 4.94179 1.20456H1.40654C0.65568 1.20456 0.046875 1.81336 0.046875 2.56423C0.046875 3.31509 0.65568 3.92389 1.40654 3.92389H3.92584L4.43066 6.57405C4.4336 6.59526 6.10131 16.4362 6.10131 16.4362C6.29427 17.574 7.38929 18.4996 8.54208 18.4996H21.2753C22.4408 18.4996 23.5023 17.5572 23.6414 16.3989L24.3735 10.3043C24.5141 9.13251 23.6858 7.99974 22.5271 7.77893Z" fill="#EEF9FF"/>
<path d="M9.04653 19.9302C7.70915 19.9302 6.62109 21.0183 6.62109 22.3558C6.62109 23.6933 7.70915 24.7813 9.04653 24.7813C10.384 24.7813 11.4721 23.6933 11.4721 22.3558C11.4721 21.0183 10.384 19.9302 9.04653 19.9302Z" fill="#EEF9FF"/>
<path d="M19.7234 19.9302C18.3859 19.9302 17.2979 21.0183 17.2979 22.3558C17.2979 23.6933 18.3859 24.7813 19.7234 24.7813C21.0609 24.7813 22.1489 23.6933 22.1489 22.3558C22.1489 21.0183 21.0609 19.9302 19.7234 19.9302Z" fill="#EEF9FF"/>
</g>
<defs>
<clipPath id="clip0">
<rect width="24.3423" height="24.3423" fill="white" transform="translate(0.046875 0.821716)"/>
</clipPath>
</defs>
</svg>
