<svg width="222" height="222" viewBox="0 0 222 222" fill="none" xmlns="http://www.w3.org/2000/svg">
<g clip-path="url(#clip0)">
<path d="M167.786 113.234C148.39 113.234 132.667 128.957 132.667 148.352V212.599H202.905V148.352C202.905 128.957 187.181 113.234 167.786 113.234Z" fill="#B1E4F9"/>
<path d="M184.074 148.352H192.662V212.599H184.074V148.352Z" fill="#90D8F9"/>
<path d="M179.581 115.264C165.986 120.108 156.255 133.091 156.255 148.35V212.599H132.667V148.35C132.667 128.956 148.391 113.233 167.785 113.233C171.924 113.232 175.894 113.946 179.581 115.264Z" fill="#90D8F9"/>
<path d="M97.5476 142.017C78.1521 142.017 62.4287 157.74 62.4287 177.136V212.6H132.667V177.136C132.667 157.74 116.943 142.017 97.5476 142.017Z" fill="#E490D0"/>
<path d="M115.786 177.308H123.026V212.599H115.786V177.308Z" fill="#DF73C1"/>
<path d="M109.343 144.046C95.7474 148.891 86.0166 161.874 86.0166 177.133V212.599H62.4287V177.133C62.4287 157.739 78.1526 142.015 97.5463 142.015C101.685 142.015 105.655 142.729 109.343 144.046Z" fill="#DF73C1"/>
<path d="M212.094 91.212H123.48C118.008 91.212 113.573 86.7768 113.573 81.3057C113.573 75.8346 118.008 71.3994 123.48 71.3994H212.094C217.566 71.3994 222.001 75.8346 222.001 81.3057C222.001 86.7768 217.566 91.212 212.094 91.212Z" fill="#EAAC9D"/>
<path d="M167.787 29.6171C147.565 29.6171 131.171 46.0104 131.171 66.2328V87.2985C131.171 107.521 147.564 123.914 167.787 123.914C188.009 123.914 204.402 107.521 204.402 87.2985V66.2328C204.403 46.0104 188.009 29.6171 167.787 29.6171Z" fill="#FFDDCE"/>
<path d="M177.242 122.676C174.226 123.486 171.056 123.913 167.786 123.913C147.563 123.913 131.172 107.521 131.172 87.2984V66.231C131.172 46.0082 147.564 29.6166 167.786 29.6166C171.056 29.6166 174.226 30.0437 177.242 30.8536C161.6 35.0174 150.083 49.2775 150.083 66.231V87.2984C150.083 104.252 161.6 118.512 177.242 122.676Z" fill="#FFCBBE"/>
<path d="M167.787 104.911C162.016 104.911 156.244 102.714 151.851 98.3204C150.542 97.0123 150.542 94.8911 151.851 93.5826C153.159 92.2744 155.28 92.2744 156.588 93.5826C162.763 99.7574 172.81 99.7569 178.985 93.5826C180.293 92.2744 182.415 92.2744 183.723 93.5826C185.032 94.8907 185.032 97.0118 183.723 98.3204C179.33 102.714 173.558 104.911 167.787 104.911Z" fill="#E490D0"/>
<path d="M155.967 80.8172C154.117 80.8172 152.617 79.3174 152.617 77.4672V70.1026C152.617 68.2525 154.117 66.7527 155.967 66.7527C157.817 66.7527 159.317 68.2525 159.317 70.1026V77.4672C159.318 79.3174 157.817 80.8172 155.967 80.8172Z" fill="#453D81"/>
<path d="M179.608 80.8172C177.758 80.8172 176.258 79.3174 176.258 77.4672V70.1026C176.258 68.2525 177.758 66.7527 179.608 66.7527C181.458 66.7527 182.958 68.2525 182.958 70.1026V77.4672C182.958 79.3174 181.458 80.8172 179.608 80.8172Z" fill="#453D81"/>
<path d="M204.403 9.40639V9.40076H204.183H159.881C154.177 9.40076 149.552 14.0259 149.552 19.7251V28.1034H149.423C148.695 23.7557 144.917 20.4431 140.361 20.4431C137.821 20.4431 135.523 21.4729 133.865 23.137C132.201 24.8007 131.171 27.0983 131.171 29.6387V76.75C134.543 76.75 137.603 75.3833 139.812 73.1698C142.025 70.9563 143.392 67.896 143.392 64.524V45.5985H192.181V64.524C192.181 71.2733 197.653 76.75 204.402 76.75V32.1072C210.572 31.9897 215.539 26.9548 215.539 20.757C215.539 14.5588 210.573 9.5239 204.403 9.40639Z" fill="#AA8080"/>
<path d="M177.475 9.40125C172.267 9.47582 168.203 10.2212 168.203 15.5626V16.278H159.011C156.472 16.278 154.172 17.3117 152.517 18.9711C150.853 20.6357 149.819 22.9363 149.819 25.475V45.5985H143.395V64.5244C143.395 67.893 142.029 70.9538 139.813 73.1699C137.606 75.3808 134.546 76.7475 131.172 76.7475V29.6388C131.172 27.0949 132.2 24.7995 133.865 23.1349C135.524 21.4703 137.82 20.4418 140.364 20.4418C144.92 20.4418 148.696 23.7558 149.422 28.1034H149.551V19.7212C149.551 14.0221 154.177 9.40125 159.881 9.40125H177.475Z" fill="#9D6B6B"/>
<path d="M98.2901 42.1063C74.1446 42.1063 54.5713 61.68 54.5713 85.8252V138.341H142.009V85.8252C142.009 61.68 122.436 42.1063 98.2901 42.1063Z" fill="#F9EF63"/>
<path d="M110.343 43.7907C92.0641 49.0264 78.6852 65.8606 78.6852 85.825V138.34H54.5713V85.825C54.5713 61.6778 74.1437 42.1053 98.2862 42.1053C102.469 42.1053 106.515 42.6907 110.343 43.7907Z" fill="#FFD064"/>
<path d="M140.387 118.567H56.1923C50.9939 118.567 46.7803 114.353 46.7803 109.155C46.7803 103.957 50.9944 99.7434 56.1923 99.7434H140.386C145.585 99.7434 149.798 103.958 149.798 109.155C149.799 114.353 145.585 118.567 140.387 118.567Z" fill="#EAAC9D"/>
<path d="M63.5009 88.461H80.7353C88.9355 88.461 95.8894 83.1169 98.292 75.7146C100.695 83.1169 107.644 88.461 115.849 88.461H133.079V114.849C133.079 134.062 117.503 149.638 98.2894 149.638C79.076 149.638 63.5 134.063 63.5 114.849V88.461H63.5009Z" fill="#FFDDCE"/>
<path d="M106.957 148.546C104.186 149.259 101.282 149.637 98.2891 149.637C88.6819 149.637 79.9862 145.742 73.6887 139.444C67.396 133.151 63.501 124.451 63.501 114.849V88.4592H80.8361V114.849C80.8361 124.451 84.7306 133.151 91.0238 139.444C95.3623 143.783 100.834 146.979 106.957 148.546Z" fill="#FFCBBE"/>
<path d="M98.2897 131.76C92.5255 131.76 87.1061 129.515 83.0303 125.439C81.7217 124.131 81.7217 122.01 83.0303 120.701C84.3389 119.393 86.46 119.393 87.7681 120.701C90.5787 123.512 94.3154 125.06 98.2897 125.06C102.264 125.06 106.001 123.512 108.811 120.701C110.119 119.393 112.241 119.393 113.549 120.701C114.858 122.009 114.858 124.131 113.549 125.439C109.473 129.515 104.054 131.76 98.2897 131.76Z" fill="#E490D0"/>
<path d="M87.0599 108.858C85.2098 108.858 83.71 107.358 83.71 105.508V98.5112C83.71 96.6611 85.2098 95.1613 87.0599 95.1613C88.91 95.1613 90.4098 96.6611 90.4098 98.5112V105.508C90.4098 107.358 88.91 108.858 87.0599 108.858Z" fill="#453D81"/>
<path d="M109.521 108.858C107.671 108.858 106.171 107.358 106.171 105.508V98.5112C106.171 96.6611 107.671 95.1613 109.521 95.1613C111.371 95.1613 112.871 96.6611 112.871 98.5112V105.508C112.871 107.358 111.371 108.858 109.521 108.858Z" fill="#453D81"/>
<path d="M59.4681 55.4198L49.0735 59.7254C45.9517 61.0184 44.4692 64.5977 45.7622 67.7196C47.0552 70.8414 50.6345 72.3239 53.7563 71.0309C52.4634 74.1528 53.9458 77.7317 57.0677 79.0251C60.1896 80.318 63.7685 78.8356 65.0619 75.7137L69.3675 65.3192L59.4681 55.4198Z" fill="#E490D0"/>
<path d="M67.0752 47.8128L71.3808 37.4183C72.6738 34.2964 76.2531 32.8139 79.375 34.1069C82.4968 35.3999 83.9793 38.9792 82.6863 42.1011C85.8082 40.8081 89.3871 42.2906 90.6805 45.4124C91.9734 48.5343 90.491 52.1132 87.3691 53.4066L76.9746 57.7122L67.0752 47.8128Z" fill="#E490D0"/>
<path d="M76.2226 64.5677C74.1219 66.6685 70.716 66.6685 68.6152 64.5677L60.2191 56.1716C58.1184 54.0709 58.1184 50.665 60.2191 48.5642C62.3199 46.4635 65.7258 46.4635 67.8265 48.5642L76.2226 56.9603C78.3234 59.0611 78.3234 62.467 76.2226 64.5677Z" fill="#DF73C1"/>
<path d="M47.3334 192.631H42.3917C32.6848 192.631 24.8164 200.499 24.8164 210.206V212.599H64.9091V210.206C64.9091 200.499 57.0402 192.631 47.3334 192.631Z" fill="#B3E59F"/>
<path d="M50.708 192.953C42.615 194.525 36.5039 201.654 36.5039 210.205V212.599H24.8164V210.205C24.8164 200.499 32.6866 192.629 42.3926 192.629H47.3325C48.4876 192.629 49.618 192.738 50.708 192.953Z" fill="#95D6A4"/>
<path d="M81.3712 163.741H8.35405C3.74018 163.741 0 160 0 155.387C0 150.773 3.74018 147.032 8.35405 147.032H81.3712C85.9851 147.032 89.7253 150.773 89.7253 155.387C89.7249 160 85.9847 163.741 81.3712 163.741Z" fill="#EAAC9D"/>
<path d="M44.8622 196.517C26.7605 196.517 12.0859 181.842 12.0859 163.741V155.41C12.0859 137.308 26.7605 122.633 44.8622 122.633C62.9638 122.633 77.6384 137.308 77.6384 155.41V163.741C77.6384 181.843 62.9638 196.517 44.8622 196.517Z" fill="#FFDDCE"/>
<path d="M53.2613 195.431C50.583 196.141 47.7672 196.52 44.8609 196.52C26.7596 196.52 12.0859 181.846 12.0859 163.741V155.409C12.0859 137.308 26.7596 122.634 44.8609 122.634C47.7672 122.634 50.583 123.013 53.2613 123.723C39.2246 127.431 28.8825 140.21 28.8825 155.409V163.741C28.8825 178.944 39.225 191.723 53.2613 195.431Z" fill="#FFCBBE"/>
<path d="M44.8619 172.254C39.5261 172.254 34.5095 170.176 30.7363 166.403C29.4277 165.095 29.4277 162.974 30.7363 161.665C32.0445 160.357 34.1656 160.357 35.4742 161.665C37.9821 164.173 41.316 165.554 44.8624 165.554C48.4087 165.554 51.7426 164.173 54.2501 161.665C55.5583 160.357 57.6794 160.357 58.988 161.665C60.2966 162.974 60.2966 165.095 58.988 166.403C55.2144 170.176 50.1977 172.254 44.8619 172.254Z" fill="#E490D0"/>
<path d="M34.6195 155.672C32.7693 155.672 31.2695 154.173 31.2695 152.322V145.941C31.2695 144.091 32.7693 142.591 34.6195 142.591C36.4696 142.591 37.9694 144.091 37.9694 145.941V152.322C37.9694 154.173 36.4696 155.672 34.6195 155.672Z" fill="#453D81"/>
<path d="M55.1048 155.672C53.2547 155.672 51.7549 154.173 51.7549 152.322V145.941C51.7549 144.091 53.2547 142.591 55.1048 142.591C56.955 142.591 58.4548 144.091 58.4548 145.941V152.322C58.4548 154.173 56.955 155.672 55.1048 155.672Z" fill="#453D81"/>
<path d="M38.0134 129.728H41.8876H45.6676H49.2539C53.3219 129.728 56.6198 126.43 56.6198 122.362C56.6198 118.294 53.3219 114.996 49.2539 114.996H45.6676V113.702C45.6676 110.455 43.0357 107.824 39.7894 107.824C36.5427 107.824 33.9112 110.456 33.9112 113.702C33.9112 110.361 31.1245 107.671 27.7485 107.83C24.5868 107.979 22.1543 110.703 22.1543 113.868C22.1539 122.627 29.2544 129.728 38.0134 129.728Z" fill="#524798"/>
<path d="M46.4458 129.73H38.0155C33.6323 129.73 29.671 127.957 26.7993 125.084C23.9272 122.217 22.1533 118.247 22.1533 113.868C22.1533 110.703 24.5862 107.982 27.7506 107.832C29.5288 107.745 31.1478 108.456 32.276 109.636C31.2254 110.738 30.5837 112.245 30.5837 113.868C30.5837 118.247 32.3575 122.217 35.2296 125.084C38.1018 127.957 42.0626 129.73 46.4458 129.73Z" fill="#453D81"/>
</g>
<defs>
<clipPath id="clip0">
<rect width="222" height="222" fill="white"/>
</clipPath>
</defs>
</svg>
