<svg width="126" height="20" viewBox="0 0 126 20" fill="none" xmlns="http://www.w3.org/2000/svg">
<path d="M9.23039 19.5403C6.59313 19.5403 4.49132 18.6612 2.92495 16.9031C1.42252 15.2248 0.671301 13.0511 0.671301 10.3819C0.671301 7.77657 1.44649 5.60283 2.99688 3.86065C4.59521 2.05453 6.68903 1.15147 9.27834 1.15147C10.2054 1.15147 11.0845 1.27934 11.9156 1.53507C12.9545 1.85474 13.6977 2.31026 14.1453 2.90165C14.401 3.2373 14.5289 3.58094 14.5289 3.93257C14.5289 4.39609 14.361 4.81166 14.0254 5.17927C13.6897 5.53091 13.2902 5.70673 12.8266 5.70673C12.3951 5.70673 11.8756 5.58685 11.2683 5.3471C10.6609 5.10735 10.0056 4.98747 9.30231 4.98747C7.86381 4.98747 6.76096 5.56287 5.99376 6.71368C5.32246 7.70464 4.98681 8.95934 4.98681 10.4778C4.98681 11.9642 5.34643 13.1789 6.06568 14.122C6.84887 15.1769 7.9677 15.7043 9.42219 15.7043C10.0615 15.7043 10.7728 15.5605 11.556 15.2728C12.3391 14.9851 12.8666 14.8412 13.1383 14.8412C13.5858 14.8412 13.9615 15.025 14.2651 15.3926C14.5848 15.7443 14.7446 16.1439 14.7446 16.5914C14.7446 16.975 14.6168 17.3426 14.361 17.6942C13.466 18.925 11.7558 19.5403 9.23039 19.5403ZM19.8212 12.5156C19.8212 13.3627 20.021 14.082 20.4205 14.6734C20.8841 15.3447 21.5234 15.6803 22.3385 15.6803C23.1537 15.6803 23.785 15.3447 24.2326 14.6734C24.6162 14.082 24.808 13.3627 24.808 12.5156C24.808 11.6685 24.6162 10.9573 24.2326 10.3819C23.785 9.72654 23.1537 9.39888 22.3385 9.39888C21.5394 9.39888 20.908 9.72654 20.4445 10.3819C20.0289 10.9732 19.8212 11.6845 19.8212 12.5156ZM24.9518 17.934C24.1527 18.909 23.0658 19.3965 21.6912 19.3965C19.949 19.3965 18.5105 18.6772 17.3757 17.2387C16.3368 15.9121 15.8173 14.3537 15.8173 12.5636C15.8173 10.7575 16.3608 9.1831 17.4476 7.8405C18.5984 6.402 20.0609 5.68275 21.8351 5.68275C23.1297 5.68275 24.1686 6.14627 24.9518 7.0733C25.3994 6.25815 26.0147 5.85057 26.7979 5.85057C28.0766 5.85057 28.7159 6.7856 28.7159 8.65565V16.4475C28.7159 18.3336 28.0766 19.2766 26.7979 19.2766C25.9508 19.2766 25.3354 18.8291 24.9518 17.934ZM35.241 13.7863V16.4475C35.241 18.3336 34.6097 19.2766 33.347 19.2766C32.0364 19.2766 31.3811 18.3336 31.3811 16.4475V8.65565C31.3811 6.7856 32.0364 5.85057 33.347 5.85057C34.6097 5.85057 35.241 6.7856 35.241 8.65565V11.0532H39.4846V8.65565C39.4846 6.7856 40.124 5.85057 41.4026 5.85057C42.6813 5.85057 43.3206 6.7856 43.3206 8.65565V16.4475C43.3206 18.3336 42.6813 19.2766 41.4026 19.2766C40.124 19.2766 39.4846 18.3336 39.4846 16.4475V13.7863H35.241ZM49.7572 13.7863V16.4475C49.7572 18.3336 49.1258 19.2766 47.8631 19.2766C46.5525 19.2766 45.8972 18.3336 45.8972 16.4475V8.65565C45.8972 6.7856 46.5525 5.85057 47.8631 5.85057C49.1258 5.85057 49.7572 6.7856 49.7572 8.65565V11.0532H54.0007V8.65565C54.0007 6.7856 54.6401 5.85057 55.9188 5.85057C57.1974 5.85057 57.8368 6.7856 57.8368 8.65565V16.4475C57.8368 18.3336 57.1974 19.2766 55.9188 19.2766C54.6401 19.2766 54.0007 18.3336 54.0007 16.4475V13.7863H49.7572ZM64.2733 12.9712L68.9245 8.65565C68.9245 7.76059 69.0204 7.11326 69.2122 6.71368C69.4999 6.13828 70.0433 5.85057 70.8425 5.85057C71.6416 5.85057 72.1851 6.13828 72.4728 6.71368C72.6646 7.11326 72.7605 7.76059 72.7605 8.65565V16.4475C72.7605 17.3426 72.6646 17.9899 72.4728 18.3895C72.1851 18.9809 71.6416 19.2766 70.8425 19.2766C70.0433 19.2766 69.4999 18.9809 69.2122 18.3895C69.0204 17.9899 68.9245 17.3426 68.9245 16.4475V12.6595L64.2733 16.4475C64.2733 17.3266 64.1774 17.9739 63.9856 18.3895C63.6979 18.9809 63.1625 19.2766 62.3793 19.2766C61.0686 19.2766 60.4133 18.3336 60.4133 16.4475V8.65565C60.4133 7.79255 60.5172 7.15322 60.725 6.73765C61.0287 6.14627 61.5801 5.85057 62.3793 5.85057C63.1625 5.85057 63.6979 6.13828 63.9856 6.71368C64.1774 7.11326 64.2733 7.76059 64.2733 8.65565V12.9712ZM77.4708 9.15913H75.8165C74.2022 9.15913 73.395 8.6077 73.395 7.50485C73.395 6.402 74.2022 5.85057 75.8165 5.85057H82.9611C84.5914 5.85057 85.4065 6.402 85.4065 7.50485C85.4065 8.6077 84.5914 9.15913 82.9611 9.15913H81.3068V16.4475C81.3068 18.3336 80.6675 19.2766 79.3888 19.2766C78.1101 19.2766 77.4708 18.3336 77.4708 16.4475V9.15913ZM85.8237 12.5636C85.8237 10.5976 86.431 8.95134 87.6458 7.62473C88.8765 6.28213 90.4588 5.61082 92.3928 5.61082C94.3588 5.61082 95.9411 6.27413 97.1399 7.60075C98.3386 8.92737 98.938 10.5816 98.938 12.5636C98.938 14.5295 98.3466 16.1678 97.1638 17.4785C95.9331 18.8211 94.3428 19.4924 92.3928 19.4924C90.4588 19.4924 88.8685 18.8131 87.6218 17.4545C86.423 16.1439 85.8237 14.5136 85.8237 12.5636ZM89.8275 12.5156C89.8275 13.3947 90.0273 14.1619 90.4269 14.8172C90.9064 15.5844 91.5617 15.968 92.3928 15.968C93.224 15.968 93.8793 15.5844 94.3588 14.8172C94.7584 14.1619 94.9581 13.3947 94.9581 12.5156C94.9581 11.6525 94.7504 10.9013 94.3348 10.262C93.8553 9.52675 93.208 9.15913 92.3928 9.15913C91.5617 9.15913 90.9064 9.52675 90.4269 10.262C90.0273 10.8853 89.8275 11.6365 89.8275 12.5156ZM100.871 16.4475V8.65565C100.871 7.79255 100.975 7.15322 101.183 6.73765C101.487 6.14627 102.038 5.85057 102.837 5.85057C103.62 5.85057 104.156 6.13828 104.443 6.71368C104.635 7.11326 104.731 7.76059 104.731 8.65565V12.9712L109.382 7.04933C110.006 6.25016 110.645 5.85057 111.3 5.85057C112.099 5.85057 112.643 6.13828 112.931 6.71368C113.122 7.11326 113.218 7.76059 113.218 8.65565V16.4475C113.218 17.3426 113.122 17.9899 112.931 18.3895C112.643 18.9809 112.099 19.2766 111.3 19.2766C110.501 19.2766 109.958 18.9809 109.67 18.3895C109.478 17.9899 109.382 17.3426 109.382 16.4475V12.4917L104.731 18.1018C104.076 18.885 103.444 19.2766 102.837 19.2766C101.526 19.2766 100.871 18.3336 100.871 16.4475ZM107.057 4.72375C105.97 4.72375 105.075 4.44404 104.372 3.88462C103.716 3.37316 103.389 2.80575 103.389 2.1824C103.389 1.36725 103.772 0.95967 104.539 0.95967C104.971 0.95967 105.347 1.19942 105.666 1.67892C106.002 2.15842 106.465 2.39817 107.057 2.39817C107.68 2.39817 108.144 2.15842 108.447 1.67892C108.751 1.19942 109.111 0.95967 109.526 0.95967C110.309 0.95967 110.701 1.36725 110.701 2.1824C110.701 2.99755 110.277 3.64487 109.43 4.12437C108.727 4.52396 107.936 4.72375 107.057 4.72375ZM114.692 12.5636C114.692 10.5337 115.299 8.87942 116.514 7.60075C117.729 6.3061 119.343 5.65877 121.357 5.65877C122.412 5.65877 123.331 5.81861 124.114 6.13828C125.169 6.58581 125.697 7.25711 125.697 8.15218C125.697 8.61569 125.545 9.00729 125.241 9.32695C124.937 9.64662 124.554 9.80645 124.09 9.80645C123.787 9.80645 123.387 9.71055 122.891 9.51875C122.412 9.31097 121.901 9.20708 121.357 9.20708C120.478 9.20708 119.799 9.54273 119.319 10.214C118.888 10.8214 118.672 11.5806 118.672 12.4917C118.672 13.4507 118.896 14.2179 119.343 14.7933C119.855 15.4326 120.574 15.7523 121.501 15.7523C122.044 15.7523 122.548 15.6564 123.011 15.4646C123.475 15.2728 123.858 15.1769 124.162 15.1769C124.61 15.1769 124.969 15.3447 125.241 15.6803C125.529 16 125.673 16.3916 125.673 16.8551C125.673 17.6383 125.129 18.3016 124.042 18.845C123.259 19.2286 122.284 19.4204 121.117 19.4204C119.167 19.4204 117.601 18.7571 116.418 17.4305C115.267 16.1518 114.692 14.5295 114.692 12.5636Z" fill="white"/>
</svg>
