<svg width="209" height="32" viewBox="0 0 209 32" fill="none" xmlns="http://www.w3.org/2000/svg">
<path d="M14.3786 31.7883C9.98475 31.7883 6.48294 30.3237 3.87323 27.3944C1.37004 24.5983 0.118447 20.9767 0.118447 16.5295C0.118447 12.1889 1.40999 8.56724 3.99307 5.66461C6.65604 2.65545 10.1445 1.15087 14.4585 1.15087C16.0031 1.15087 17.4677 1.36391 18.8524 1.78999C20.5834 2.32258 21.8216 3.08152 22.5673 4.06682C22.9934 4.62605 23.2064 5.19859 23.2064 5.78444C23.2064 6.5567 22.9268 7.24907 22.3676 7.86156C21.8083 8.44741 21.1426 8.74034 20.3703 8.74034C19.6513 8.74034 18.7859 8.54061 17.7739 8.14117C16.762 7.74172 15.6702 7.542 14.4985 7.542C12.1018 7.542 10.2644 8.50067 8.98614 10.418C7.86769 12.069 7.30846 14.1595 7.30846 16.6893C7.30846 19.1659 7.90763 21.1897 9.10597 22.7609C10.4108 24.5184 12.2749 25.3972 14.6982 25.3972C15.7634 25.3972 16.9484 25.1575 18.2533 24.6782C19.5581 24.1989 20.4369 23.9592 20.8896 23.9592C21.6352 23.9592 22.261 24.2654 22.767 24.8779C23.2996 25.4638 23.5659 26.1295 23.5659 26.8752C23.5659 27.5143 23.3529 28.1268 22.9268 28.7126C21.4355 30.7631 18.5861 31.7883 14.3786 31.7883ZM32.0238 20.0846C32.0238 21.496 32.3567 22.6943 33.0225 23.6796C33.7947 24.798 34.8599 25.3573 36.218 25.3573C37.5761 25.3573 38.628 24.798 39.3736 23.6796C40.0127 22.6943 40.3323 21.496 40.3323 20.0846C40.3323 18.6732 40.0127 17.4882 39.3736 16.5295C38.628 15.4377 37.5761 14.8918 36.218 14.8918C34.8865 14.8918 33.8347 15.4377 33.0624 16.5295C32.37 17.5148 32.0238 18.6998 32.0238 20.0846ZM40.572 29.1121C39.2405 30.7365 37.4297 31.5487 35.1395 31.5487C32.2369 31.5487 29.8402 30.3503 27.9495 27.9537C26.2186 25.7434 25.3531 23.147 25.3531 20.1645C25.3531 17.1553 26.2585 14.5323 28.0693 12.2954C29.9867 9.89873 32.4233 8.70039 35.3792 8.70039C37.5362 8.70039 39.2671 9.47265 40.572 11.0172C41.3176 9.65906 42.3428 8.98 43.6477 8.98C45.7781 8.98 46.8433 10.5378 46.8433 13.6535V26.6355C46.8433 29.7778 45.7781 31.3489 43.6477 31.3489C42.2363 31.3489 41.2111 30.6033 40.572 29.1121ZM57.7147 22.2016V26.6355C57.7147 29.7778 56.6629 31.3489 54.5591 31.3489C52.3755 31.3489 51.2837 29.7778 51.2837 26.6355V13.6535C51.2837 10.5378 52.3755 8.98 54.5591 8.98C56.6629 8.98 57.7147 10.5378 57.7147 13.6535V17.648H64.7849V13.6535C64.7849 10.5378 65.8501 8.98 67.9805 8.98C70.1109 8.98 71.176 10.5378 71.176 13.6535V26.6355C71.176 29.7778 70.1109 31.3489 67.9805 31.3489C65.8501 31.3489 64.7849 29.7778 64.7849 26.6355V22.2016H57.7147ZM81.8999 22.2016V26.6355C81.8999 29.7778 80.848 31.3489 78.7443 31.3489C76.5606 31.3489 75.4688 29.7778 75.4688 26.6355V13.6535C75.4688 10.5378 76.5606 8.98 78.7443 8.98C80.848 8.98 81.8999 10.5378 81.8999 13.6535V17.648H88.9701V13.6535C88.9701 10.5378 90.0353 8.98 92.1657 8.98C94.296 8.98 95.3612 10.5378 95.3612 13.6535V26.6355C95.3612 29.7778 94.296 31.3489 92.1657 31.3489C90.0353 31.3489 88.9701 29.7778 88.9701 26.6355V22.2016H81.8999ZM106.085 20.8435L113.834 13.6535C113.834 12.1623 113.994 11.0837 114.314 10.418C114.793 9.45934 115.698 8.98 117.03 8.98C118.361 8.98 119.267 9.45934 119.746 10.418C120.066 11.0837 120.225 12.1623 120.225 13.6535V26.6355C120.225 28.1268 120.066 29.2053 119.746 29.871C119.267 30.8563 118.361 31.3489 117.03 31.3489C115.698 31.3489 114.793 30.8563 114.314 29.871C113.994 29.2053 113.834 28.1268 113.834 26.6355V20.3243L106.085 26.6355C106.085 28.1001 105.925 29.1786 105.606 29.871C105.126 30.8563 104.234 31.3489 102.929 31.3489C100.746 31.3489 99.654 29.7778 99.654 26.6355V13.6535C99.654 12.2155 99.8271 11.1503 100.173 10.458C100.679 9.47265 101.598 8.98 102.929 8.98C104.234 8.98 105.126 9.45934 105.606 10.418C105.925 11.0837 106.085 12.1623 106.085 13.6535V20.8435ZM128.073 14.4924H125.317C122.628 14.4924 121.283 13.5736 121.283 11.7362C121.283 9.89873 122.628 8.98 125.317 8.98H137.221C139.937 8.98 141.295 9.89873 141.295 11.7362C141.295 13.5736 139.937 14.4924 137.221 14.4924H134.464V26.6355C134.464 29.7778 133.399 31.3489 131.269 31.3489C129.138 31.3489 128.073 29.7778 128.073 26.6355V14.4924ZM141.99 20.1645C141.99 16.889 143.002 14.1462 145.026 11.9359C147.076 9.699 149.713 8.58056 152.935 8.58056C156.21 8.58056 158.847 9.68569 160.844 11.896C162.841 14.1062 163.84 16.8624 163.84 20.1645C163.84 23.4399 162.854 26.1695 160.884 28.3531C158.833 30.59 156.184 31.7084 152.935 31.7084C149.713 31.7084 147.063 30.5767 144.986 28.3132C142.989 26.1295 141.99 23.4133 141.99 20.1645ZM148.661 20.0846C148.661 21.5492 148.994 22.8274 149.659 23.9193C150.458 25.1975 151.55 25.8366 152.935 25.8366C154.319 25.8366 155.411 25.1975 156.21 23.9193C156.876 22.8274 157.209 21.5492 157.209 20.0846C157.209 18.6466 156.863 17.395 156.17 16.3298C155.371 15.1048 154.293 14.4924 152.935 14.4924C151.55 14.4924 150.458 15.1048 149.659 16.3298C148.994 17.3684 148.661 18.62 148.661 20.0846ZM167.06 26.6355V13.6535C167.06 12.2155 167.234 11.1503 167.58 10.458C168.086 9.47265 169.004 8.98 170.336 8.98C171.641 8.98 172.533 9.45934 173.012 10.418C173.332 11.0837 173.491 12.1623 173.491 13.6535V20.8435L181.241 10.9772C182.279 9.64575 183.344 8.98 184.436 8.98C185.768 8.98 186.673 9.45934 187.153 10.418C187.472 11.0837 187.632 12.1623 187.632 13.6535V26.6355C187.632 28.1268 187.472 29.2053 187.153 29.871C186.673 30.8563 185.768 31.3489 184.436 31.3489C183.105 31.3489 182.199 30.8563 181.72 29.871C181.401 29.2053 181.241 28.1268 181.241 26.6355V20.0446L173.491 29.3917C172.4 30.6965 171.348 31.3489 170.336 31.3489C168.152 31.3489 167.06 29.7778 167.06 26.6355ZM177.366 7.10261C175.555 7.10261 174.064 6.63659 172.892 5.70455C171.801 4.8524 171.255 3.90705 171.255 2.86849C171.255 1.51037 171.894 0.831317 173.172 0.831317C173.891 0.831317 174.517 1.23076 175.049 2.02965C175.609 2.82854 176.381 3.22799 177.366 3.22799C178.405 3.22799 179.177 2.82854 179.683 2.02965C180.189 1.23076 180.788 0.831317 181.48 0.831317C182.785 0.831317 183.438 1.51037 183.438 2.86849C183.438 4.2266 182.732 5.30511 181.321 6.104C180.149 6.76974 178.831 7.10261 177.366 7.10261ZM190.087 20.1645C190.087 16.7825 191.099 14.0263 193.123 11.896C195.147 9.73895 197.836 8.66045 201.192 8.66045C202.949 8.66045 204.481 8.92674 205.785 9.45934C207.543 10.205 208.422 11.3234 208.422 12.8147C208.422 13.5869 208.169 14.2394 207.663 14.772C207.157 15.3046 206.518 15.5709 205.745 15.5709C205.24 15.5709 204.574 15.4111 203.748 15.0915C202.949 14.7453 202.097 14.5722 201.192 14.5722C199.727 14.5722 198.595 15.1315 197.797 16.2499C197.077 17.2618 196.718 18.5267 196.718 20.0446C196.718 21.6424 197.091 22.9206 197.836 23.8793C198.689 24.9445 199.887 25.4771 201.431 25.4771C202.337 25.4771 203.176 25.3173 203.948 24.9978C204.72 24.6782 205.359 24.5184 205.865 24.5184C206.611 24.5184 207.21 24.798 207.663 25.3573C208.142 25.8899 208.382 26.5423 208.382 27.3145C208.382 28.6194 207.476 29.7245 205.666 30.6299C204.361 31.2691 202.736 31.5886 200.792 31.5886C197.544 31.5886 194.934 30.4835 192.963 28.2732C191.046 26.1428 190.087 23.4399 190.087 20.1645Z" fill="#FFBD12"/>
</svg>
