<svg width="49" height="48" viewBox="0 0 49 48" fill="none" xmlns="http://www.w3.org/2000/svg">
<path d="M28.6925 0.357727L19.8554 0.498915C9.46331 2.69763 1.66406 11.9217 1.66406 22.9686C1.66406 35.6539 11.9475 45.9373 24.6327 45.9373C37.3179 45.9373 47.6014 35.6539 47.6014 22.9686C47.6014 11.6688 39.4414 2.27473 28.6925 0.357727Z" fill="#746BF9"/>
<path d="M8.61426 35.9536V45.166C8.61426 46.7247 9.88963 48 11.4483 48H37.817C39.3758 48 40.6511 46.7246 40.6511 45.166V35.9536H8.61426Z" fill="#5F5F9B"/>
<path d="M16.1786 45.3714L15.8385 35.9535H8.61426V45.1658C8.61426 46.7246 9.88954 47.9999 11.4483 47.9999H16.1786C14.8042 46.6256 16.1786 45.3714 16.1786 45.3714Z" fill="#47477F"/>
<path d="M38.023 35.9536H11.2432V44.5567C11.2432 45.0068 11.6079 45.3716 12.058 45.3716H37.2081C37.6582 45.3716 38.023 45.0067 38.023 44.5567V35.9536Z" fill="#3B3868"/>
<path d="M14.9999 44.1925V39.246C14.9999 38.8532 15.1954 38.5045 15.493 38.29V35.9536H11.2432V44.5567C11.2432 45.0068 11.6079 45.3716 12.058 45.3716H16.1789C15.5304 45.3715 14.9999 44.8409 14.9999 44.1925Z" fill="#2D2D59"/>
<path d="M26.1514 19.5317C25.5005 19.5317 24.968 18.9992 24.968 18.3483C24.968 18.9992 24.4355 19.5317 23.7846 19.5317C23.1559 19.5317 22.6377 19.0348 22.6031 18.4143V18.321C22.6031 18.9346 22.1469 19.4668 21.5362 19.5261C20.8336 19.5942 20.2363 19.0377 20.2363 18.3483C20.2363 18.0429 20.2363 9.8734 20.2363 9.63996V6.70465H28.2822V7.59724C28.2822 8.01228 28.4352 8.41062 28.7045 8.72628C29.3321 9.46174 29.6996 10.4111 29.6996 11.4248V18.3482C29.6996 19.0375 29.1024 19.5941 28.3997 19.526C27.789 19.4667 27.3327 18.9345 27.3327 18.3209V18.4142C27.2982 19.0348 26.7801 19.5317 26.1514 19.5317Z" fill="#FCAD6D"/>
<path d="M33.9168 22.6808C33.5708 22.6808 33.2677 22.4276 33.2152 22.0752C32.9437 20.2539 31.9996 18.61 30.5569 17.4463C30.38 17.3036 30.1842 17.178 29.9752 17.0728C29.6248 16.8966 29.4836 16.4696 29.6599 16.1192C29.8362 15.7689 30.2631 15.6277 30.6135 15.8039C30.9124 15.9543 31.1933 16.1349 31.4485 16.3407C33.1696 17.7287 34.2959 19.6909 34.6202 21.8657C34.678 22.2536 34.4104 22.615 34.0225 22.6728C33.9869 22.6782 33.9516 22.6808 33.9168 22.6808Z" fill="#E9EFFF"/>
<path d="M33.0177 17.9832C32.5718 17.3769 32.0471 16.8235 31.4485 16.3407C31.1934 16.135 30.9124 15.9543 30.6135 15.8039C30.2631 15.6277 29.8362 15.7689 29.6599 16.1192C29.4836 16.4696 29.6248 16.8965 29.9752 17.0728C30.1842 17.178 30.38 17.3036 30.5569 17.4463C31.0856 17.8728 31.5466 18.3642 31.9329 18.9047C31.8485 18.2862 32.434 17.8032 33.0177 17.9832Z" fill="#BEC9F7"/>
<path d="M15.3488 22.6808C15.314 22.6808 15.2787 22.6782 15.2432 22.6729C14.8553 22.6151 14.5877 22.2537 14.6456 21.8658C14.9697 19.6909 16.0961 17.7288 17.8171 16.3408C18.0723 16.135 18.3533 15.9544 18.6522 15.8041C19.0025 15.6277 19.4294 15.7691 19.6057 16.1195C19.7819 16.4699 19.6407 16.8968 19.2903 17.073C19.0813 17.1781 18.8856 17.3038 18.7087 17.4464C17.2659 18.6101 16.3218 20.254 16.0503 22.0753C15.9978 22.4277 15.6947 22.6808 15.3488 22.6808Z" fill="#BEC9F7"/>
<path d="M29.7451 16.7243H19.5198C18.9075 16.7243 18.406 16.253 18.3564 15.6534H18.3516V17.3993C18.3516 18.0445 18.8746 18.5676 19.5198 18.5676H29.7451C30.3903 18.5676 30.9133 18.0445 30.9133 17.3993V15.6534H30.9084C30.8588 16.253 30.3574 16.7243 29.7451 16.7243Z" fill="#47477F"/>
<path d="M29.7451 16.8217H19.5198C18.8746 16.8217 18.3516 16.2986 18.3516 15.6534C18.3516 15.0083 18.8746 14.4852 19.5198 14.4852H29.7451C30.3903 14.4852 30.9133 15.0083 30.9133 15.6534C30.9133 16.2986 30.3903 16.8217 29.7451 16.8217Z" fill="#5F5F9B"/>
<path d="M23.785 19.6347C24.4358 19.6347 24.9684 19.1022 24.9684 18.4512V15.1197C24.9684 14.4688 24.4359 13.9363 23.785 13.9363C23.1341 13.9363 22.6016 14.4688 22.6016 15.1197V18.4512C22.6016 19.1021 23.1341 19.6347 23.785 19.6347Z" fill="#FCAD6D"/>
<path d="M26.1522 19.6347C26.8031 19.6347 27.3356 19.1022 27.3356 18.4512V15.1197C27.3356 14.4688 26.8031 13.9363 26.1522 13.9363C25.5013 13.9363 24.9688 14.4688 24.9688 15.1197V18.4512C24.9688 19.1021 25.5013 19.6347 26.1522 19.6347Z" fill="#FCAD6D"/>
<path d="M21.4197 19.6347C22.0706 19.6347 22.6031 19.1022 22.6031 18.4512V15.1197C22.6031 14.4688 22.0706 13.9363 21.4197 13.9363C20.7688 13.9363 20.2363 14.4688 20.2363 15.1197V18.4512C20.2363 19.1021 20.7688 19.6347 21.4197 19.6347Z" fill="#FCAD6D"/>
<path d="M20.2363 15.1197V17.0433C20.4232 16.572 20.884 16.2364 21.4197 16.2364C21.9554 16.2364 22.4163 16.5721 22.6031 17.0433V15.1197C22.6031 14.4688 22.0706 13.9363 21.4197 13.9363C20.7688 13.9363 20.2363 14.4689 20.2363 15.1197Z" fill="#FD995B"/>
<path d="M28.5174 19.6347C29.1683 19.6347 29.7008 19.1022 29.7008 18.4512V15.1197C29.7008 14.4688 29.1683 13.9363 28.5174 13.9363C27.8665 13.9363 27.334 14.4688 27.334 15.1197V18.4512C27.334 19.1021 27.8665 19.6347 28.5174 19.6347Z" fill="#FCAD6D"/>
<path d="M22.6016 15.1197V17.0433C22.7884 16.572 23.2493 16.2364 23.785 16.2364C24.3207 16.2364 24.7815 16.5721 24.9684 17.0433V15.1197C24.9684 14.4688 24.4359 13.9363 23.785 13.9363C23.1341 13.9363 22.6016 14.4689 22.6016 15.1197Z" fill="#FD995B"/>
<path d="M24.9688 15.1197V17.0433C25.1556 16.572 25.6165 16.2364 26.1522 16.2364C26.6878 16.2364 27.1487 16.5721 27.3356 17.0433V15.1197C27.3356 14.4688 26.8031 13.9363 26.1522 13.9363C25.5013 13.9363 24.9688 14.4689 24.9688 15.1197Z" fill="#FD995B"/>
<path d="M27.334 15.1197V17.0433C27.5208 16.572 27.9817 16.2364 28.5174 16.2364C29.0531 16.2364 29.514 16.572 29.7008 17.0433V15.1197C29.7008 14.4688 29.1683 13.9363 28.5174 13.9363C27.8665 13.9363 27.334 14.4689 27.334 15.1197Z" fill="#FD995B"/>
<path d="M22.6156 16.3916L19.2363 15.3426C18.8616 15.2263 18.5617 14.9439 18.4234 14.5768C18.0524 13.592 17.6963 11.4557 19.709 8.51202C20.0188 8.05884 20.1872 7.52362 20.1872 6.97462V6.70471H23.6497V9.02259C23.6497 12.3499 20.9761 13.2759 20.9761 13.2759C23.7703 13.8032 23.7512 15.2217 23.5926 15.8502C23.4877 16.2659 23.0422 16.5241 22.6156 16.3916Z" fill="#FCAD6D"/>
<path d="M19.79 15.5135L21.1421 15.9332C21.9051 14.6163 23.0251 15.2321 23.6262 15.7184C23.7469 15.0412 23.5936 13.7694 20.9812 13.2765L20.6166 13.4028C21.5162 15.0006 19.79 15.5135 19.79 15.5135Z" fill="#FD995B"/>
<path d="M23.5972 15.8508C23.6088 15.8048 23.6196 15.7546 23.6286 15.7009C23.0366 15.2072 21.8897 14.5405 21.123 15.9274L22.6201 16.3921C23.0469 16.5247 23.4924 16.2665 23.5972 15.8508Z" fill="#FCD7C3"/>
<path d="M23.4966 10.2831C23.3023 10.2353 23.1026 10.3441 23.0402 10.5342C22.4542 12.3202 20.9358 12.883 20.8533 12.9123C20.6526 12.9824 20.5465 13.2019 20.6161 13.4029C20.6858 13.6043 20.9057 13.711 21.107 13.6412C21.1376 13.6306 21.8644 13.3736 22.5859 12.6747C23.0081 12.2659 23.4814 11.6491 23.7701 10.7772C23.8407 10.5645 23.7142 10.3366 23.4966 10.2831Z" fill="#FD995B"/>
<path d="M26.561 8.20399C25.5303 8.20934 24.9375 8.51909 24.6084 8.80803C24.3515 9.0334 23.9793 9.06696 23.6896 8.88565C22.8606 8.36665 21.1751 7.73778 19.2799 9.44253C19.1999 9.51443 19.0996 9.59346 19.0205 9.65599C19.2114 9.28971 19.4382 8.90843 19.7093 8.51196C20.0191 8.05878 20.1875 7.52356 20.1875 6.97456V6.70465H28.2826V7.59724C28.2826 8.01228 28.4356 8.41062 28.705 8.72628C28.9493 9.01259 29.1536 9.33171 29.3128 9.67409C28.9509 9.19062 28.0285 8.1964 26.561 8.20399Z" fill="#FD995B"/>
<path d="M28.6925 0.35775C27.3748 0.122719 26.0181 0 24.6328 0C22.9945 0 21.3967 0.172875 19.8555 0.498937V3.34763H28.6925V0.35775Z" fill="#47477F"/>
<path d="M28.676 2.914H19.873C19.6345 2.914 19.4395 3.1091 19.4395 3.3476V6.39025C19.4395 6.62875 19.6345 6.82385 19.873 6.82385H28.676C28.9145 6.82385 29.1096 6.62875 29.1096 6.39025V3.34769C29.1097 3.10919 28.9145 2.914 28.676 2.914Z" fill="#E9EFFF"/>
<path d="M24.2745 6.39025V3.3476C24.2745 3.1091 24.4696 2.914 24.7081 2.914H19.873C19.6345 2.914 19.4395 3.1091 19.4395 3.3476V6.39025C19.4395 6.62875 19.6345 6.82385 19.873 6.82385H24.7081C24.4697 6.82385 24.2745 6.62875 24.2745 6.39025Z" fill="#BEC8F7"/>
<path d="M40.6656 36.0509H8.59963C8.13453 36.0509 7.75391 35.6704 7.75391 35.2052V24.0327C7.75391 22.8984 8.68194 21.9704 9.81622 21.9704H39.449C40.5833 21.9704 41.5113 22.8984 41.5113 24.0327V35.2052C41.5113 35.6704 41.1308 36.0509 40.6656 36.0509Z" fill="#47477F"/>
<path d="M15.4927 28.0338C15.001 27.8938 14.6377 27.4405 14.6377 26.9054V23.1444C14.6377 22.4988 15.1659 21.9705 15.8115 21.9705H9.81622C8.68194 21.9705 7.75391 22.8986 7.75391 24.0328V35.2053C7.75391 35.6704 8.13444 36.051 8.59963 36.051H15.4926V28.0338H15.4927Z" fill="#3B3868"/>
<path d="M13.9561 33.5987V37.2008C13.9561 37.8639 14.4936 38.4014 15.1567 38.4014C15.8198 38.4014 16.3574 37.8639 16.3574 37.2008V33.5987H13.9561Z" fill="#7272AF"/>
<path d="M16.3574 31.2298H13.9561V28.0991C13.9561 27.9478 14.0787 27.8251 14.2301 27.8251H16.0834C16.2347 27.8251 16.3575 27.9478 16.3575 28.0991V31.2298H16.3574Z" fill="#5F5F9B"/>
<path d="M32.9082 33.5987V37.2008C32.9082 37.8639 33.4458 38.4014 34.1089 38.4014C34.772 38.4014 35.3095 37.8639 35.3095 37.2008V33.5987H32.9082Z" fill="#7272AF"/>
<path d="M13.9561 33.5987V36.7993C13.9561 36.1362 14.4936 35.5987 15.1567 35.5987C15.8198 35.5987 16.3574 36.1362 16.3574 36.7993V33.5987H13.9561Z" fill="#5F5F9B"/>
<path d="M32.9072 33.5987V36.7993C32.9072 36.1362 33.4448 35.5987 34.1079 35.5987C34.771 35.5987 35.3085 36.1362 35.3085 36.7993V33.5987H32.9072Z" fill="#5F5F9B"/>
<path d="M35.3085 31.2298H32.9072V28.0991C32.9072 27.9478 33.0299 27.8251 33.1813 27.8251H35.0346C35.1859 27.8251 35.3086 27.9478 35.3086 28.0991V31.2298H35.3085Z" fill="#5F5F9B"/>
<path d="M18.609 24.8045H30.657C31.1182 24.8045 31.4955 24.4272 31.4955 23.966V21.9704H17.7705V23.966C17.7705 24.4272 18.1479 24.8045 18.609 24.8045Z" fill="#3B3868"/>
<path d="M27.4576 21.9704V23.966C27.4576 24.4272 27.0804 24.8045 26.6191 24.8045H30.6569C31.118 24.8045 31.4954 24.4272 31.4954 23.966V21.9704H27.4576Z" fill="#2D2D59"/>
<path d="M30.9395 32.4142C30.9395 31.3696 31.7894 30.5197 32.834 30.5197H35.3814C36.4261 30.5197 37.276 31.3696 37.276 32.4142C37.276 33.4589 36.4261 34.3088 35.3814 34.3088H32.834C31.7894 34.3088 30.9395 33.4589 30.9395 32.4142ZM32.834 31.94C32.577 31.94 32.3598 32.1572 32.3598 32.4142C32.3598 32.6713 32.577 32.8885 32.834 32.8885H35.3814C35.6385 32.8885 35.8557 32.6713 35.8557 32.4142C35.8557 32.1572 35.6385 31.94 35.3814 31.94H32.834Z" fill="#BEC8F7"/>
<path d="M34.1643 32.8885H35.358C35.5804 32.8885 35.7863 32.7457 35.8417 32.5303C35.9199 32.2261 35.6774 31.94 35.3823 31.94H34.1643C33.772 31.94 33.4541 31.6221 33.4541 31.2298C33.4541 30.8376 33.7721 30.5197 34.1643 30.5197H35.3357C36.3617 30.5197 37.2367 31.316 37.2754 32.3412C37.3162 33.4191 36.4511 34.3088 35.3823 34.3088H34.1643C33.772 34.3088 33.4541 33.9908 33.4541 33.5987C33.4541 33.2065 33.7721 32.8885 34.1643 32.8885Z" fill="#E9EFFF"/>
<path d="M11.9893 32.4142C11.9893 31.3696 12.8392 30.5197 13.8839 30.5197H16.4312C17.4759 30.5197 18.3258 31.3696 18.3258 32.4142C18.3258 33.4589 17.4759 34.3088 16.4312 34.3088H13.8839C12.8392 34.3088 11.9893 33.4589 11.9893 32.4142ZM13.8839 31.94C13.6269 31.94 13.4097 32.1572 13.4097 32.4142C13.4097 32.6713 13.6269 32.8885 13.8839 32.8885H16.4313C16.6884 32.8885 16.9056 32.6713 16.9056 32.4142C16.9056 32.1572 16.6884 31.94 16.4313 31.94H13.8839Z" fill="#BEC8F7"/>
<path d="M15.2122 32.8885H16.4059C16.6283 32.8885 16.8343 32.7457 16.8897 32.5303C16.9679 32.2261 16.7253 31.94 16.4302 31.94H15.2122C14.82 31.94 14.502 31.6221 14.502 31.2298C14.502 30.8376 14.82 30.5197 15.2122 30.5197H16.3836C17.4096 30.5197 18.2846 31.316 18.3234 32.3412C18.3642 33.4191 17.499 34.3088 16.4301 34.3088H15.2121C14.8199 34.3088 14.502 33.9908 14.502 33.5987C14.502 33.2065 14.82 32.8885 15.2122 32.8885Z" fill="#E9EFFF"/>
</svg>
