<svg width="49" height="48" viewBox="0 0 49 48" fill="none" xmlns="http://www.w3.org/2000/svg">
<g clip-path="url(#clip0)">
<path d="M42.5302 16.432H4.91197C3.98328 16.432 3.23047 17.1848 3.23047 18.1135V22.6304H44.2118V18.1135C44.2117 17.1849 43.4589 16.432 42.5302 16.432Z" fill="#FFB125"/>
<path d="M28.8725 7.09379L25.4658 41.5811C25.3802 42.4475 24.6086 43.0804 23.7422 42.9948L6.48098 41.2897C5.61464 41.2041 4.98173 40.4324 5.06732 39.5661L8.47401 5.07882C8.55961 4.21248 9.33126 3.57957 10.1976 3.66516L27.4589 5.37029C28.3251 5.45579 28.958 6.22744 28.8725 7.09379Z" fill="#B6FA4C"/>
<path d="M27.4594 5.37017L10.1982 3.66504C9.33182 3.57945 8.56016 4.21235 8.47457 5.0787L8.16895 8.17282C8.42788 8.04129 8.72554 7.97838 9.03595 8.00904L26.2972 9.71416C27.1635 9.79976 27.7964 10.5714 27.7109 11.4378L24.6098 42.8311C25.0734 42.5956 25.4114 42.137 25.4663 41.5812L28.873 7.09385C28.9587 6.22742 28.3257 5.45576 27.4594 5.37017Z" fill="#A8E83A"/>
<path d="M10.3043 9.96902L7.81912 35.1284C7.78358 35.4885 7.95308 35.8395 8.26021 36.031C9.10649 36.5586 9.7618 37.3501 10.1219 38.2795C10.2514 38.6135 10.5606 38.8438 10.917 38.8791L19.8651 39.763C20.2216 39.7982 20.57 39.6327 20.7621 39.3305C21.2971 38.4896 22.0946 37.8416 23.0278 37.4897C23.3664 37.362 23.6014 37.0511 23.6369 36.691L26.1221 11.5316C26.1576 11.1715 25.9881 10.8205 25.681 10.629C24.8347 10.1014 24.1794 9.30986 23.8193 8.38052C23.6899 8.04658 23.3807 7.81615 23.0242 7.7809L14.0761 6.89702C13.7196 6.86177 13.3713 7.02724 13.1791 7.32949C12.6441 8.17033 11.8466 8.81843 10.9134 9.17027C10.5749 9.29796 10.34 9.60893 10.3043 9.96902Z" fill="#77DD00"/>
<path d="M25.6813 10.629C24.8351 10.1014 24.1797 9.30986 23.8196 8.38052C23.6902 8.04649 23.381 7.81615 23.0246 7.7809L14.0764 6.89702C13.72 6.86177 13.3716 7.02724 13.1793 7.32949C12.6444 8.17033 11.8468 8.81843 10.9136 9.17027C10.575 9.29796 10.3401 9.60893 10.3046 9.96902L10.21 10.9268L21.8043 12.0363C22.1607 12.0716 22.47 12.3019 22.5994 12.6359C22.9595 13.5652 23.6148 14.3568 24.4611 14.8844C24.7682 15.0759 24.9377 15.4269 24.9022 15.787L22.7467 37.6076C22.8391 37.5656 22.9327 37.5258 23.028 37.4898C23.3666 37.3621 23.6016 37.0511 23.6371 36.6911L26.1223 11.5316C26.158 11.1715 25.9884 10.8205 25.6813 10.629Z" fill="#73CC00"/>
<path d="M43.5085 12.232L23.9927 40.8696C23.5024 41.5889 22.5218 41.7748 21.8025 41.2845L7.46903 31.5166C6.74969 31.0264 6.56388 30.0458 7.0541 29.3264L26.57 0.688821C27.0603 -0.0305225 28.0409 -0.216335 28.7602 0.273884L43.0937 10.0418C43.813 10.532 43.9987 11.5125 43.5085 12.232Z" fill="#B6FA4C"/>
<path d="M43.0941 10.0418L28.7607 0.273848C28.0414 -0.216371 27.0607 -0.0306523 26.5705 0.688785L24.9012 3.13838C25.046 3.18366 25.1869 3.25041 25.3189 3.34032L39.6523 13.1082C40.3716 13.5984 40.5575 14.5791 40.0672 15.2984L22.2207 41.4865C22.8657 41.6883 23.5929 41.4571 23.9932 40.8697L43.5091 12.2319C43.9992 11.5125 43.8135 10.532 43.0941 10.0418Z" fill="#A8E83A"/>
<path d="M25.8329 5.8577L11.5955 26.7496C11.3917 27.0487 11.3724 27.4379 11.5501 27.7531C12.0402 28.6217 12.236 29.6305 12.1067 30.6188C12.0603 30.9739 12.2213 31.3243 12.5173 31.526L19.9477 36.5896C20.2437 36.7914 20.6287 36.813 20.9423 36.6399C21.8148 36.1582 22.8253 35.9715 23.8129 36.1098C24.1713 36.16 24.5265 35.9996 24.7304 35.7006L38.9677 14.8088C39.1715 14.5097 39.1908 14.1205 39.013 13.8053C38.5229 12.9367 38.3271 11.9279 38.4564 10.9397C38.5028 10.5846 38.3418 10.2341 38.0459 10.0325L30.6154 4.96876C30.3194 4.76701 29.9344 4.74536 29.6208 4.91851C28.7483 5.4002 27.7379 5.58686 26.7502 5.44858C26.3919 5.39823 26.0366 5.55864 25.8329 5.8577Z" fill="#77DD00"/>
<path d="M39.0133 13.8052C38.5233 12.9366 38.3275 11.9279 38.4567 10.9397C38.5031 10.5845 38.3421 10.2341 38.0462 10.0324L30.6157 4.96873C30.3198 4.76708 29.9347 4.74533 29.6211 4.91848C28.7487 5.40017 27.7382 5.58683 26.7505 5.44845C26.3921 5.39829 26.0369 5.55861 25.8331 5.85767L25.2397 6.72833L34.526 12.988C34.822 13.1898 34.9831 13.5401 34.9366 13.8952C34.8074 14.8835 35.0032 15.8922 35.4932 16.7608C35.6709 17.076 35.6516 17.4653 35.4478 17.7643L22.9727 36.0708C23.2523 36.0585 23.5337 36.0707 23.8133 36.1099C24.1717 36.1601 24.5269 35.9997 24.7308 35.7006L38.968 14.8087C39.1718 14.5097 39.1911 14.1204 39.0133 13.8052Z" fill="#73CC00"/>
<path d="M27.4623 23.9428C30.2785 23.9428 32.5614 21.6599 32.5614 18.8438C32.5614 16.0276 30.2785 13.7447 27.4623 13.7447C24.6462 13.7447 22.3633 16.0276 22.3633 18.8438C22.3633 21.6599 24.6462 23.9428 27.4623 23.9428Z" fill="#B6FA4C"/>
<path d="M43.1129 48H3.8304C2.49109 48 1.40527 46.9143 1.40527 45.5749V21.5755C1.40527 20.2362 2.49099 19.1504 3.8304 19.1504H43.1129C44.4522 19.1504 45.538 20.2361 45.538 21.5755V45.5749C45.538 46.9143 44.4523 48 43.1129 48Z" fill="#FFB125"/>
<path d="M43.113 19.1504H38.7012C40.0405 19.1504 41.1263 20.2362 41.1263 21.5755V45.5749C41.1263 46.9142 40.0405 48 38.7012 48H43.113C44.4524 48 45.5382 46.9143 45.5382 45.5749V21.5755C45.5382 20.2362 44.4524 19.1504 43.113 19.1504Z" fill="#FF901D"/>
<path d="M46.9819 28.9395H38.1405C35.5803 28.9395 33.5049 31.015 33.5049 33.5752C33.5049 36.1354 35.5803 38.2108 38.1405 38.2108H46.9819C47.4672 38.2108 47.8605 37.8175 47.8605 37.3322V29.8181C47.8605 29.333 47.4672 28.9395 46.9819 28.9395Z" fill="#FF6D3A"/>
<path d="M46.982 28.9395H42.5545C43.0397 28.9395 43.4331 29.3329 43.4331 29.8181V36.1473C43.4331 36.6648 43.0136 37.0843 42.4961 37.0843H38.1405C35.7711 37.0843 33.8182 35.3063 33.5401 33.0118C33.5177 33.1966 33.5049 33.3843 33.5049 33.5751C33.5049 36.1353 35.5803 38.2107 38.1405 38.2107H42.5544H46.9819C47.4672 38.2107 47.8605 37.8174 47.8605 37.3321V36.2057V29.8181C47.8606 29.333 47.4673 28.9395 46.982 28.9395Z" fill="#ED5729"/>
<path d="M43.1129 19.1504H3.8304C2.49109 19.1504 1.40527 20.2362 1.40527 21.5755V24.2331H45.538V21.5755C45.538 20.2362 44.4523 19.1504 43.1129 19.1504Z" fill="#FF6D3A"/>
<path d="M45.1238 20.2196C45.0366 20.0906 44.9373 19.9704 44.8276 19.8607C44.8263 19.8594 44.825 19.8583 44.8237 19.857C44.715 19.7488 44.5963 19.6507 44.4687 19.5646C44.4364 19.5428 44.4036 19.5217 44.3702 19.5015C44.3206 19.4714 44.2695 19.4435 44.2177 19.4169C44.1841 19.3996 44.1501 19.3832 44.1156 19.3675C43.8099 19.2284 43.4705 19.1503 43.1128 19.1503H38.7012C40.0404 19.1504 41.126 20.2361 41.126 21.5754V24.2329H45.5379V21.5754C45.5379 21.1568 45.4319 20.7631 45.2452 20.4195C45.208 20.3508 45.1674 20.2841 45.1238 20.2196Z" fill="#ED5729"/>
<path d="M3.8304 48H43.1129C44.4522 48 45.538 46.9142 45.538 45.5749V42.9172H1.40527V45.5749C1.40527 46.9142 2.49099 48 3.8304 48Z" fill="#FF6D3A"/>
<path d="M41.1261 42.9172V45.5749C41.1261 45.5763 41.1261 45.5777 41.1261 45.579C41.1257 45.803 40.9382 45.9817 40.7143 45.9817H3.8304C2.49109 45.9817 1.40527 44.8959 1.40527 43.5566V45.5748C1.40527 46.9143 2.49099 48 3.8304 48H38.7011H43.113C43.1609 48 43.2083 47.9982 43.2555 47.9955C43.2702 47.9946 43.2848 47.9932 43.2994 47.9921C43.3323 47.9896 43.3651 47.9866 43.3976 47.9827C43.4137 47.9809 43.4298 47.9788 43.446 47.9766C43.4783 47.9722 43.5104 47.967 43.5422 47.9614C43.5564 47.9588 43.5706 47.9566 43.5847 47.9538C43.6298 47.9449 43.6746 47.9351 43.7188 47.9237C43.7188 47.9237 43.7189 47.9237 43.719 47.9237C43.7384 47.9187 43.7573 47.9128 43.7765 47.9074C43.8724 47.8801 43.9662 47.8478 44.0569 47.8095C44.0932 47.7941 44.129 47.778 44.1644 47.7609C44.1997 47.7439 44.2346 47.726 44.2689 47.7074L44.269 47.7073C44.3376 47.67 44.4043 47.6295 44.4688 47.586L44.4689 47.5859L44.469 47.5858C44.5239 47.5487 44.5768 47.509 44.6282 47.4677C44.6307 47.4657 44.6332 47.4638 44.6356 47.4619C44.6878 47.4197 44.738 47.3752 44.7866 47.3289C44.8437 47.2744 44.8981 47.2172 44.9497 47.1574V47.1573C45.0303 47.0637 45.1041 46.964 45.1699 46.8589C45.1717 46.856 45.1736 46.8532 45.1754 46.8504C45.1996 46.8113 45.223 46.7718 45.245 46.7313C45.245 46.7312 45.2451 46.7311 45.2452 46.7309V46.7308C45.3038 46.6229 45.3542 46.5098 45.3961 46.3927C45.4009 46.3794 45.4052 46.3658 45.4098 46.3524C45.42 46.3225 45.4296 46.2923 45.4386 46.262C45.4431 46.2465 45.4475 46.231 45.4518 46.2155C45.4602 46.1849 45.4679 46.154 45.475 46.1229C45.4783 46.1088 45.4818 46.0946 45.4848 46.0804C45.4943 46.0356 45.5029 45.9905 45.5099 45.945C45.5099 45.9447 45.51 45.9445 45.51 45.9442C45.51 45.9441 45.51 45.944 45.51 45.9439C45.5181 45.8906 45.5238 45.8365 45.5284 45.7821C45.5296 45.7684 45.5306 45.7546 45.5316 45.7408C45.5354 45.686 45.5379 45.6307 45.5379 45.5749V43.5567V42.9173L41.1261 42.9172Z" fill="#ED5729"/>
<path d="M38.3057 35.728C39.4945 35.728 40.4581 34.7644 40.4581 33.5756C40.4581 32.3869 39.4945 31.4232 38.3057 31.4232C37.117 31.4232 36.1533 32.3869 36.1533 33.5756C36.1533 34.7644 37.117 35.728 38.3057 35.728Z" fill="#F2F2F2"/>
</g>
<defs>
<clipPath id="clip0">
<rect width="48" height="48" fill="white" transform="translate(0.632812)"/>
</clipPath>
</defs>
</svg>
