<svg width="49" height="48" viewBox="0 0 49 48" fill="none" xmlns="http://www.w3.org/2000/svg">
<g clip-path="url(#clip0)">
<path d="M46.1056 2.35931H8.81335C8.56398 2.35931 8.3402 2.51222 8.24945 2.74444L6.28613 7.77047V40.1225C6.28613 41.0193 7.01316 41.7462 7.90988 41.7462H47.0092C47.906 41.7462 48.6329 41.0192 48.6329 40.1225V7.77047L46.6695 2.74444C46.5789 2.51222 46.355 2.35931 46.1056 2.35931Z" fill="#927266"/>
<path d="M47.0092 41.7462H7.90988C7.01307 41.7462 6.28613 41.0192 6.28613 40.1225V7.77057H48.6329V40.1226C48.6329 41.0193 47.9059 41.7462 47.0092 41.7462Z" fill="#82635A"/>
<path d="M44.3682 7.77045V37.0077C44.3682 38.4644 43.1874 39.6453 41.7307 39.6453H7.90988C7.01307 39.6453 6.28613 38.9183 6.28613 38.0215V40.1224C6.28613 41.0193 7.01316 41.7462 7.90988 41.7462H47.0092C47.906 41.7462 48.6329 41.0192 48.6329 40.1224V7.77045H44.3682Z" fill="#72544E"/>
<path d="M30.2444 23.1533C30.5065 24.0062 30.0272 24.9019 29.1833 25.1632L22.1883 27.3282L22.6008 27.4964L27.2686 29.3997L34.995 32.5502C35.9325 32.9324 36.3825 34.0022 36.0003 34.9397C35.6181 35.8771 34.5482 36.3271 33.6108 35.9449L35.4026 36.6755C36.34 37.0577 36.7901 38.1276 36.4079 39.065C36.0256 40.0024 34.9558 40.4525 34.0184 40.0703L32.2266 39.3397C33.153 39.7175 33.6035 40.7669 33.2449 41.6963C32.875 42.6551 31.7557 43.107 30.8041 42.7189L29.31 42.1096C30.2474 42.4919 30.6975 43.5617 30.3152 44.4991C29.933 45.4366 28.8631 45.8866 27.9257 45.5044L14.3929 39.9864C13.0632 39.4442 11.8938 38.5717 10.9954 37.4514C10.097 36.3311 8.92767 35.4586 7.59792 34.9164L1.98633 32.6282L5.90855 23.0091L10.7664 24.9899C12.3925 25.653 28.3406 22.0612 28.3406 22.0612C29.1604 21.8892 29.9984 22.3526 30.2444 23.1533Z" fill="#FED9A8"/>
<path d="M30.2444 23.1533C30.5065 24.0062 30.0272 24.9019 29.1833 25.1632L22.1883 27.3282L22.6008 27.4964L27.2686 29.3997L34.995 32.5502C35.9325 32.9324 36.3825 34.0022 36.0003 34.9397C35.6181 35.8771 34.5482 36.3271 33.6108 35.9449L35.4026 36.6755C36.34 37.0577 36.7901 38.1276 36.4079 39.065C36.0256 40.0024 34.9558 40.4525 34.0184 40.0703L32.2266 39.3397C33.153 39.7175 33.6035 40.7669 33.2449 41.6963C32.875 42.6551 31.7557 43.107 30.8041 42.7189L29.31 42.1096C30.2474 42.4919 30.6975 43.5617 30.3152 44.4991C29.933 45.4366 28.8631 45.8866 27.9257 45.5044L14.3929 39.9864C13.0632 39.4442 11.8938 38.5717 10.9954 37.4514C10.097 36.3311 8.92767 35.4586 7.59792 34.9164L1.98633 32.6282L5.90855 23.0091L10.7664 24.9899C12.3925 25.653 28.3406 22.0612 28.3406 22.0612C29.1604 21.8892 29.9984 22.3526 30.2444 23.1533Z" fill="#FED9A8"/>
<path d="M30.2444 23.1533C30.5065 24.0062 30.0272 24.9019 29.1833 25.1632L22.1883 27.3282L22.6008 27.4964L27.2686 29.3997L34.995 32.5502C35.9325 32.9324 36.3825 34.0022 36.0003 34.9397C35.6181 35.8771 34.5482 36.3271 33.6108 35.9449L35.4026 36.6755C36.34 37.0577 36.7901 38.1276 36.4079 39.065C36.0256 40.0024 34.9558 40.4525 34.0184 40.0703L32.2266 39.3397C33.153 39.7175 33.6035 40.7669 33.2449 41.6963C32.875 42.6551 31.7557 43.107 30.8041 42.7189L29.31 42.1096C30.2474 42.4919 30.6975 43.5617 30.3152 44.4991C29.933 45.4366 28.8631 45.8866 27.9257 45.5044L14.3929 39.9864C13.0632 39.4442 11.8938 38.5717 10.9954 37.4514C10.097 36.3311 8.92767 35.4586 7.59792 34.9164L1.98633 32.6282L5.90855 23.0091L10.7664 24.9899C12.3925 25.653 28.3406 22.0612 28.3406 22.0612C29.1604 21.8892 29.9984 22.3526 30.2444 23.1533Z" fill="#FED9A8"/>
<path d="M30.3177 44.4953C30.3201 44.4895 30.3224 44.4837 30.3247 44.4779C30.3256 44.4756 30.3264 44.4732 30.3274 44.471C30.3293 44.4661 30.3311 44.4613 30.3329 44.4566C30.3339 44.4537 30.335 44.451 30.336 44.4482C30.3376 44.4439 30.3392 44.4396 30.3408 44.4353C30.342 44.4321 30.3431 44.4288 30.3443 44.4256C30.3457 44.4218 30.3471 44.4179 30.3484 44.4141C30.3495 44.4108 30.3506 44.4075 30.3518 44.4042C30.3531 44.4003 30.3545 44.3964 30.3558 44.3924C30.3569 44.3891 30.358 44.3856 30.3593 44.3822C30.3605 44.3786 30.3616 44.375 30.3628 44.3713C30.3639 44.3678 30.3652 44.3642 30.3663 44.3606C30.3674 44.357 30.3686 44.3533 30.3698 44.3497C30.3708 44.3462 30.3719 44.3428 30.3729 44.3394C30.3741 44.3355 30.3753 44.3317 30.3764 44.3278C30.3774 44.3245 30.3785 44.321 30.3794 44.3176C30.3804 44.3141 30.3815 44.3105 30.3825 44.3069C30.3836 44.3031 30.3847 44.2992 30.3858 44.2955C30.3867 44.2922 30.3876 44.2888 30.3885 44.2856C30.3895 44.2817 30.3906 44.2779 30.3916 44.274C30.3924 44.2706 30.3934 44.2673 30.3942 44.264C30.3953 44.2601 30.3962 44.2562 30.3972 44.2524C30.3981 44.249 30.3989 44.2457 30.3997 44.2423C30.4006 44.2384 30.4015 44.2346 30.4025 44.2307C30.4031 44.2278 30.4039 44.2249 30.4045 44.2219C30.4056 44.2176 30.4066 44.2132 30.4075 44.2089C30.4079 44.2073 30.4083 44.2056 30.4087 44.204C30.4126 44.1864 30.4163 44.1686 30.4196 44.1509C30.42 44.1491 30.4204 44.1472 30.4208 44.1453C30.4217 44.1401 30.4226 44.1351 30.4236 44.1299C30.4239 44.128 30.4243 44.1259 30.4247 44.1239C30.4256 44.1186 30.4266 44.1132 30.4274 44.1079C30.4277 44.1062 30.428 44.1045 30.4283 44.1028C30.4291 44.0975 30.43 44.0921 30.4308 44.0866C30.4311 44.0848 30.4314 44.0831 30.4316 44.0814C30.4325 44.0758 30.4333 44.0703 30.4341 44.0648C30.4343 44.0633 30.4345 44.0618 30.4347 44.0603C30.4356 44.0544 30.4363 44.0485 30.4371 44.0426C30.4372 44.0416 30.4374 44.0406 30.4374 44.0396C30.4382 44.0335 30.439 44.0273 30.4397 44.0211C30.4398 44.0203 30.4399 44.0195 30.44 44.0187C30.4407 44.0124 30.4415 44.0061 30.4421 43.9997C30.4422 43.9991 30.4422 43.9986 30.4423 43.998C30.443 43.9915 30.4436 43.9848 30.4443 43.9782C30.4443 43.9781 30.4443 43.9778 30.4444 43.9776C30.5118 43.2576 30.1449 42.5475 29.49 42.1947C29.4798 42.1892 29.4695 42.1844 29.4593 42.1792C29.4133 42.1556 29.3665 42.1331 29.3179 42.1131C29.3016 42.1062 29.285 42.0992 29.269 42.0927L22.4098 39.2959C22.0472 40.1853 22.4717 41.2005 23.3596 41.567L28.7999 43.8124C29.3741 44.0466 29.7677 44.5599 29.8969 45.1218C30.073 44.9507 30.2175 44.7413 30.3161 44.4993C30.3167 44.498 30.3172 44.4966 30.3177 44.4953Z" fill="#F4C892"/>
<path d="M35.7793 35.3363C35.8677 35.2165 35.9427 35.0839 36.0014 34.9397C36.3837 34.0022 35.9336 32.9324 34.9962 32.5502L27.2698 29.3997L22.602 27.4964L22.1895 27.3282C23.231 29.1326 24.8435 30.5389 26.7727 31.3256L34.9962 34.6787C35.2839 34.7961 35.5788 35.084 35.7793 35.3363Z" fill="#F4C892"/>
<path d="M36.4335 37.7441C36.4284 37.7303 36.4233 37.7166 36.4179 37.7029C36.4152 37.6961 36.4125 37.6893 36.4097 37.6825C36.4042 37.6689 36.3985 37.6554 36.3927 37.642C36.3752 37.6017 36.3561 37.5619 36.3358 37.5229C36.3256 37.5034 36.3151 37.4841 36.3042 37.465C36.297 37.4522 36.2895 37.4396 36.282 37.4269C36.2744 37.4144 36.2667 37.4018 36.2588 37.3894C36.2509 37.377 36.2429 37.3647 36.2347 37.3525C36.157 37.2363 36.0658 37.1285 35.962 37.0318C35.9566 37.0267 35.951 37.0216 35.9455 37.0166C35.9123 36.9864 35.8779 36.9573 35.8423 36.9295C35.8364 36.9248 35.8304 36.9202 35.8244 36.9156C35.8124 36.9064 35.8002 36.8974 35.788 36.8886C35.7819 36.8842 35.7757 36.8798 35.7695 36.8754C35.658 36.7967 35.5357 36.7294 35.4039 36.6756L33.6122 35.945H33.6123L25.1787 32.5062C24.8055 33.4214 25.2459 34.4659 26.1619 34.8376L35.404 38.5884C35.776 38.7401 36.0774 39.0144 36.2746 39.3317C36.3258 39.248 36.371 39.1589 36.4093 39.0651C36.4809 38.8893 36.5234 38.7089 36.5388 38.5292C36.5401 38.5142 36.5411 38.4993 36.542 38.4843C36.5573 38.2301 36.5191 37.9782 36.4335 37.7441Z" fill="#F4C892"/>
<path d="M5.31862 21.5943C5.4644 21.2369 5.87231 21.0652 6.22978 21.211L10.0194 22.7563C10.3769 22.9021 10.5486 23.31 10.4028 23.6674L5.7689 35.032C5.62312 35.3895 5.21521 35.5611 4.85774 35.4153L1.06809 33.8701C0.710619 33.7243 0.538963 33.3164 0.684744 32.9589L5.31862 21.5943Z" fill="#2D5872"/>
<path d="M10.0194 22.7563L8.38452 22.0897L4.05984 32.6959C3.91406 33.0534 3.50615 33.2249 3.14868 33.0792L0.993931 32.2006L0.684744 32.9589C0.538963 33.3164 0.710619 33.7243 1.06809 33.8701L4.85774 35.4154C5.21521 35.5612 5.62312 35.3895 5.7689 35.032L10.4029 23.6675C10.5485 23.31 10.3769 22.902 10.0194 22.7563Z" fill="#1D4859"/>
<path d="M31.0137 2.35931H23.9045L22.6523 7.77056V19.2006C22.6523 19.5127 23.0209 19.6785 23.2544 19.4715L27.219 15.9593C27.3561 15.8378 27.5621 15.8378 27.6991 15.9593L31.6637 19.4715C31.8973 19.6785 32.2658 19.5127 32.2658 19.2006V7.77047L31.0137 2.35931Z" fill="#FFB125"/>
<path d="M31.6637 19.4715L27.6991 15.9593C27.562 15.8378 27.356 15.8378 27.219 15.9593L23.2544 19.4715C23.0208 19.6784 22.6523 19.5126 22.6523 19.2006V7.77057H32.2658V19.2006C32.2658 19.5127 31.8973 19.6785 31.6637 19.4715Z" fill="#FF901D"/>
<path d="M33.1249 41.9494C33.1662 41.8783 33.2031 41.8035 33.2349 41.7251C33.2358 41.7228 33.2367 41.7204 33.2377 41.7182C33.2399 41.7124 33.2422 41.7068 33.2444 41.7011C33.2459 41.6972 33.2474 41.6932 33.2489 41.6894C33.2499 41.6869 33.2508 41.6844 33.2517 41.6819C33.2535 41.6771 33.2553 41.6723 33.2571 41.6675C33.2579 41.6652 33.2589 41.6628 33.2597 41.6604C33.2615 41.6555 33.2632 41.6507 33.265 41.6457C33.2657 41.6435 33.2665 41.6413 33.2673 41.6391C33.269 41.6343 33.2707 41.6293 33.2724 41.6243C33.2732 41.622 33.274 41.6195 33.2748 41.6172C33.2762 41.613 33.2776 41.6087 33.279 41.6044C33.28 41.6014 33.281 41.5985 33.2819 41.5955C33.2841 41.5887 33.2863 41.5818 33.2884 41.5749C33.2895 41.5714 33.2905 41.5678 33.2916 41.5642C33.2926 41.5608 33.2936 41.5575 33.2947 41.5541C33.296 41.5497 33.2972 41.5454 33.2985 41.541C33.2993 41.5384 33.3 41.5356 33.3008 41.533C33.302 41.5288 33.3031 41.5246 33.3042 41.5204C33.305 41.5174 33.3058 41.5145 33.3067 41.5116C33.3078 41.5074 33.3089 41.5032 33.31 41.499C33.3108 41.4963 33.3115 41.4934 33.3122 41.4907C33.3134 41.4861 33.3145 41.4814 33.3157 41.4769C33.3162 41.4747 33.3167 41.4725 33.3173 41.4703C33.3185 41.4653 33.3197 41.4604 33.3208 41.4553C33.3213 41.4533 33.3218 41.4513 33.3222 41.4495C33.3235 41.4444 33.3246 41.4393 33.3257 41.4341C33.3261 41.4323 33.3265 41.4306 33.3268 41.4288C33.328 41.4235 33.3292 41.4182 33.3303 41.4128C33.3306 41.4117 33.3308 41.4106 33.331 41.4094C33.3338 41.3965 33.3363 41.3838 33.3386 41.3709C33.4946 40.5335 33.0475 39.6738 32.228 39.3396L23.7945 35.9009C23.4355 36.7814 23.8605 37.7859 24.7424 38.1413L32.228 41.1584C32.6178 41.3175 32.9283 41.6113 33.1249 41.9494Z" fill="#F4C892"/>
</g>
<defs>
<clipPath id="clip0">
<rect width="48" height="48" fill="white" transform="translate(0.632812)"/>
</clipPath>
</defs>
</svg>
