<svg width="24" height="25" viewBox="0 0 24 25" fill="none" xmlns="http://www.w3.org/2000/svg">
<g clip-path="url(#clip0)">
<path d="M14.4004 0.62381H9.59981C4.96739 0.62381 1.19873 4.39247 1.19873 9.02489V12.6254C1.19873 15.8776 3.07439 18.829 5.99934 20.2173V24.2268C5.99934 24.575 6.43486 24.757 6.68226 24.5097L10.1655 21.0264H14.4004C19.0327 21.0264 22.8014 17.2578 22.8014 12.6254V9.02489C22.8014 4.39247 19.0327 0.62381 14.4004 0.62381Z" fill="#665CAC"/>
<path d="M7.19948 20.2172C4.27453 18.8289 2.39887 15.8775 2.39887 12.6253V9.02484C2.39887 4.39247 6.16757 0.62381 10.7999 0.62381H9.59981C4.96739 0.62381 1.19873 4.39247 1.19873 9.02489V12.6254C1.19873 15.8776 3.07439 18.829 5.99934 20.2173V24.2268C5.99934 24.575 6.43486 24.757 6.68226 24.5097L7.19948 23.9925V20.2172Z" fill="#523494"/>
<path d="M18.0401 15.5348L17.6805 13.5864C17.6507 13.4254 17.526 13.2988 17.3655 13.2667L14.5367 12.701C14.4054 12.6748 14.27 12.7158 14.1753 12.8104L13.0261 13.9596C11.0898 13.092 10.0151 12.015 9.06957 9.99561L10.2151 8.85013C10.3096 8.75553 10.3507 8.61988 10.3245 8.48872L9.75877 5.65991C9.72666 5.49945 9.60005 5.37467 9.43909 5.34495L7.49068 4.98533C7.43734 4.97553 7.3824 4.97656 7.32943 4.98861C6.81498 5.10547 6.34557 5.36469 5.97193 5.73842C5.32496 6.38539 5.0777 7.32945 5.25695 8.46856C5.55784 10.3813 6.49496 13.0433 8.22395 14.7792L8.24757 14.8026C9.98213 16.5304 12.6441 17.4676 14.557 17.7686C14.798 17.8065 15.0301 17.8253 15.2526 17.8253C16.0821 17.8253 16.777 17.5637 17.2872 17.0535C17.6609 16.6798 17.9202 16.2104 18.037 15.6961C18.0489 15.6431 18.05 15.5882 18.0401 15.5348Z" fill="white"/>
<path d="M9.82378 9.24126L10.2149 8.85009L10.2153 8.84967L9.82373 9.24122L9.82378 9.24126Z" fill="#E5E5E5"/>
<path d="M14.1752 12.8099L13.7803 13.2049L13.7803 13.205L14.1753 12.81L14.1752 12.8099Z" fill="#E5E5E5"/>
<path d="M16.0065 17.0709C15.784 17.0709 15.5519 17.0521 15.3109 17.0141C13.3981 16.7132 10.7361 15.776 9.00149 14.0482L8.97786 14.0248C7.24888 12.2888 6.31175 9.6269 6.01086 7.71412C5.86607 6.79382 5.99994 6.00093 6.39786 5.38907C6.24547 5.49074 6.10246 5.60737 5.97144 5.73838C5.32447 6.38535 5.07721 7.32941 5.25646 8.46852C5.55735 10.3813 6.49447 13.0432 8.22346 14.7792L8.24708 14.8026C9.98165 16.5304 12.6436 17.4676 14.5565 17.7685C14.7975 17.8065 15.0296 17.8253 15.2521 17.8253C16.0816 17.8253 16.7765 17.5637 17.2867 17.0535C17.4177 16.9225 17.5343 16.7795 17.636 16.6271C17.1843 16.9209 16.634 17.0709 16.0065 17.0709Z" fill="#E5E5E5"/>
<path d="M12.7999 7.42465C12.579 7.42465 12.3999 7.60376 12.3999 7.82468C12.3999 8.04561 12.579 8.22471 12.7999 8.22471C13.6823 8.22471 14.4002 8.94256 14.4002 9.82493C14.4002 10.0429 14.5822 10.225 14.8002 10.225C15.0182 10.225 15.2002 10.0429 15.2002 9.82493C15.2003 8.50137 14.1235 7.42465 12.7999 7.42465Z" fill="white"/>
<path d="M12.8002 5.82443C12.6522 5.82443 12.5028 5.83264 12.3562 5.84881C12.1366 5.87304 11.9782 6.07071 12.0024 6.29037C12.0267 6.51003 12.2248 6.668 12.444 6.64414C12.5616 6.63115 12.6814 6.62454 12.8002 6.62454C14.5649 6.62454 16.0005 8.06023 16.0005 9.82493C16.0005 9.94376 15.9939 10.0636 15.981 10.1811C15.957 10.3977 16.118 10.5988 16.3347 10.6227C16.5514 10.6466 16.7523 10.4856 16.7763 10.2689C16.7925 10.1223 16.8007 9.97296 16.8007 9.82493C16.8007 7.61909 15.0061 5.82443 12.8002 5.82443Z" fill="white"/>
<path d="M12.8006 4.22427C12.6577 4.22427 12.5129 4.22971 12.3704 4.24054C12.1501 4.25723 11.985 4.44941 12.0016 4.66968C12.0183 4.88999 12.2111 5.05509 12.4308 5.0384C12.5533 5.02907 12.6777 5.02438 12.8006 5.02438C15.4477 5.02438 17.6012 7.17791 17.6012 9.82499C17.6012 10.1995 17.558 10.5724 17.4728 10.9331C17.4239 11.1398 17.5512 11.3547 17.7562 11.4109C17.9719 11.4699 18.2001 11.3347 18.2514 11.1171C18.3509 10.6962 18.4014 10.2614 18.4014 9.82499C18.4014 6.73673 15.8889 4.22427 12.8006 4.22427Z" fill="white"/>
</g>
<defs>
<clipPath id="clip0">
<rect width="24" height="24" fill="white" transform="translate(0 0.62381)"/>
</clipPath>
</defs>
</svg>
