<svg width="24" height="25" viewBox="0 0 24 25" fill="none" xmlns="http://www.w3.org/2000/svg">
<g clip-path="url(#clip0)">
<path d="M12.003 0.62381H11.997C5.3805 0.62381 0 6.00581 0 12.6238C0 15.2488 0.846 17.6818 2.2845 19.6573L0.789 24.1153L5.4015 22.6408C7.299 23.8978 9.5625 24.6238 12.003 24.6238C18.6195 24.6238 24 19.2403 24 12.6238C24 6.00731 18.6195 0.62381 12.003 0.62381Z" fill="#4CAF50"/>
<path d="M18.9853 17.5693C18.6958 18.3868 17.5468 19.0648 16.6303 19.2628C16.0033 19.3963 15.1843 19.5028 12.4273 18.3598C8.90083 16.8988 6.62983 13.3153 6.45283 13.0828C6.28333 12.8503 5.02783 11.1853 5.02783 9.4633C5.02783 7.7413 5.90233 6.9028 6.25483 6.5428C6.54433 6.2473 7.02283 6.1123 7.48183 6.1123C7.63033 6.1123 7.76383 6.1198 7.88383 6.1258C8.23633 6.1408 8.41333 6.16181 8.64583 6.71831C8.93533 7.41581 9.64033 9.1378 9.72433 9.31481C9.80983 9.49181 9.89533 9.73181 9.77533 9.96431C9.66283 10.2043 9.56383 10.3108 9.38683 10.5148C9.20983 10.7188 9.04183 10.8748 8.86483 11.0938C8.70283 11.2843 8.51983 11.4883 8.72383 11.8408C8.92783 12.1858 9.63283 13.3363 10.6708 14.2603C12.0103 15.4528 13.0963 15.8338 13.4848 15.9958C13.7743 16.1158 14.1193 16.0873 14.3308 15.8623C14.5993 15.5728 14.9308 15.0928 15.2683 14.6203C15.5083 14.2813 15.8113 14.2393 16.1293 14.3593C16.4533 14.4718 18.1678 15.3193 18.5203 15.4948C18.8728 15.6718 19.1053 15.7558 19.1908 15.9043C19.2748 16.0528 19.2748 16.7503 18.9853 17.5693Z" fill="#FAFAFA"/>
</g>
<defs>
<clipPath id="clip0">
<rect width="24" height="24" fill="white" transform="translate(0 0.62381)"/>
</clipPath>
</defs>
</svg>
