<svg width="24" height="25" viewBox="0 0 24 25" fill="none" xmlns="http://www.w3.org/2000/svg">
<g clip-path="url(#clip0)">
<path d="M12 24.6238C18.6274 24.6238 24 19.2512 24 12.6238C24 5.99639 18.6274 0.62381 12 0.62381C5.37258 0.62381 0 5.99639 0 12.6238C0 19.2512 5.37258 24.6238 12 24.6238Z" fill="#039BE5"/>
<path d="M5.49126 12.3637L17.0613 7.90274C17.5983 7.70874 18.0673 8.03374 17.8933 8.84574L17.8943 8.84474L15.9243 18.1257C15.7783 18.7837 15.3873 18.9437 14.8403 18.6337L11.8403 16.4227L10.3933 17.8167C10.2333 17.9767 10.0983 18.1117 9.78826 18.1117L10.0013 15.0587L15.5613 10.0357C15.8033 9.82274 15.5073 9.70274 15.1883 9.91474L8.31726 14.2407L5.35526 13.3167C4.71226 13.1127 4.69826 12.6737 5.49126 12.3637Z" fill="white"/>
</g>
<defs>
<clipPath id="clip0">
<rect width="24" height="24" fill="white" transform="translate(0 0.62381)"/>
</clipPath>
</defs>
</svg>
