<svg width="184" height="32" viewBox="0 0 184 32" fill="none" xmlns="http://www.w3.org/2000/svg">
<rect width="183.184" height="32" rx="8" fill="white"/>
<path d="M17.504 20.336V24.528H15.968L15.696 22H9.616L9.344 24.528H7.808V20.336H8.592C8.848 20.0693 9.05067 19.7333 9.2 19.328C9.34933 18.912 9.48267 18.3413 9.6 17.616C9.728 16.8907 9.888 15.7813 10.08 14.288L10.496 10.944H16.56V20.336H17.504ZM14.48 12.56H12.304L12.128 14.208C11.9787 15.5947 11.8293 16.672 11.68 17.44C11.5413 18.1973 11.3653 18.8 11.152 19.248C10.9493 19.6853 10.672 20.048 10.32 20.336H14.48V12.56ZM25.4411 19.76C25.4411 20.0907 25.4891 20.336 25.5851 20.496C25.6918 20.6453 25.8571 20.7627 26.0811 20.848L25.6491 22.208C25.1691 22.1653 24.7745 22.048 24.4651 21.856C24.1665 21.664 23.9371 21.3707 23.7771 20.976C23.4891 21.4027 23.1265 21.7227 22.6891 21.936C22.2625 22.1387 21.7825 22.24 21.2491 22.24C20.4065 22.24 19.7398 22 19.2491 21.52C18.7585 21.04 18.5131 20.4107 18.5131 19.632C18.5131 18.7147 18.8438 18.016 19.5051 17.536C20.1771 17.0453 21.1318 16.8 22.3691 16.8H23.4251V16.32C23.4251 15.776 23.2971 15.3973 23.0411 15.184C22.7958 14.96 22.3958 14.848 21.8411 14.848C21.2225 14.848 20.4758 14.9973 19.6011 15.296L19.1211 13.904C20.1771 13.4987 21.2011 13.296 22.1931 13.296C24.3585 13.296 25.4411 14.2667 25.4411 16.208V19.76ZM21.7931 20.752C22.4865 20.752 23.0305 20.4053 23.4251 19.712V18H22.5771C21.2545 18 20.5931 18.4907 20.5931 19.472C20.5931 19.8773 20.6945 20.192 20.8971 20.416C21.0998 20.64 21.3985 20.752 21.7931 20.752ZM33.831 13.536L33.575 15.104H31.095V22H29.047V15.104H26.423V13.536H33.831ZM40.6286 19.76C40.6286 20.0907 40.6766 20.336 40.7726 20.496C40.8793 20.6453 41.0446 20.7627 41.2686 20.848L40.8366 22.208C40.3566 22.1653 39.962 22.048 39.6526 21.856C39.354 21.664 39.1246 21.3707 38.9646 20.976C38.6766 21.4027 38.314 21.7227 37.8766 21.936C37.45 22.1387 36.97 22.24 36.4366 22.24C35.594 22.24 34.9273 22 34.4366 21.52C33.946 21.04 33.7006 20.4107 33.7006 19.632C33.7006 18.7147 34.0313 18.016 34.6926 17.536C35.3646 17.0453 36.3193 16.8 37.5566 16.8H38.6126V16.32C38.6126 15.776 38.4846 15.3973 38.2286 15.184C37.9833 14.96 37.5833 14.848 37.0286 14.848C36.41 14.848 35.6633 14.9973 34.7886 15.296L34.3086 13.904C35.3646 13.4987 36.3886 13.296 37.3806 13.296C39.546 13.296 40.6286 14.2667 40.6286 16.208V19.76ZM36.9806 20.752C37.674 20.752 38.218 20.4053 38.6126 19.712V18H37.7646C36.442 18 35.7806 18.4907 35.7806 19.472C35.7806 19.8773 35.882 20.192 36.0846 20.416C36.2873 20.64 36.586 20.752 36.9806 20.752ZM51.971 22V15.104H49.155V22H47.107V13.536H54.019V22H51.971ZM59.938 13.296C61.186 13.296 62.1567 13.696 62.85 14.496C63.554 15.2853 63.906 16.3733 63.906 17.76C63.906 18.6453 63.746 19.4293 63.426 20.112C63.106 20.784 62.6473 21.3067 62.05 21.68C61.4527 22.0533 60.7433 22.24 59.922 22.24C58.674 22.24 57.698 21.8453 56.994 21.056C56.29 20.256 55.938 19.1573 55.938 17.76C55.938 16.8747 56.098 16.096 56.418 15.424C56.738 14.752 57.1967 14.2293 57.794 13.856C58.402 13.4827 59.1167 13.296 59.938 13.296ZM59.938 14.848C58.7113 14.848 58.098 15.8187 58.098 17.76C58.098 18.7627 58.2473 19.504 58.546 19.984C58.8553 20.4533 59.314 20.688 59.922 20.688C60.53 20.688 60.9833 20.448 61.282 19.968C61.5913 19.488 61.746 18.752 61.746 17.76C61.746 16.768 61.5913 16.0373 61.282 15.568C60.9833 15.088 60.5353 14.848 59.938 14.848ZM69.2338 13.296C69.7884 13.296 70.2844 13.376 70.7218 13.536C71.1698 13.696 71.5911 13.9467 71.9858 14.288L71.0738 15.52C70.7858 15.3067 70.5084 15.152 70.2418 15.056C69.9751 14.96 69.6818 14.912 69.3618 14.912C68.0924 14.912 67.4578 15.8773 67.4578 17.808C67.4578 18.7893 67.6231 19.4987 67.9538 19.936C68.2844 20.3627 68.7538 20.576 69.3618 20.576C69.6604 20.576 69.9324 20.528 70.1778 20.432C70.4338 20.336 70.7324 20.1813 71.0738 19.968L71.9858 21.264C71.1858 21.9147 70.2738 22.24 69.2498 22.24C68.4391 22.24 67.7351 22.064 67.1378 21.712C66.5404 21.3493 66.0818 20.8373 65.7618 20.176C65.4418 19.5147 65.2818 18.736 65.2818 17.84C65.2818 16.944 65.4418 16.1547 65.7618 15.472C66.0818 14.7787 66.5404 14.2453 67.1378 13.872C67.7351 13.488 68.4338 13.296 69.2338 13.296ZM79.6904 13.536L79.4344 15.104H76.9544V22H74.9064V15.104H72.2824V13.536H79.6904ZM84.9686 22.032C84.6273 23.0773 84.11 23.888 83.4166 24.464C82.7233 25.0507 81.774 25.392 80.5686 25.488L80.3606 24C80.9153 23.9147 81.358 23.792 81.6886 23.632C82.03 23.4827 82.302 23.28 82.5046 23.024C82.7073 22.768 82.894 22.4267 83.0646 22H82.3606L79.6726 13.536H81.8486L83.6886 20.64L85.6086 13.536H87.7206L84.9686 22.032ZM93.8304 22V15.104H91.0144V22H88.9664V13.536H95.8784V22H93.8304ZM105.045 13.536V22H102.997V15.088H100.933L100.725 17.36C100.619 18.5547 100.491 19.4507 100.341 20.048C100.192 20.6453 99.9414 21.1093 99.5894 21.44C99.248 21.76 98.72 22.0107 98.0054 22.192L97.4934 20.672C97.8454 20.5227 98.096 20.3573 98.2454 20.176C98.4054 19.984 98.5174 19.6853 98.5814 19.28C98.656 18.8747 98.7307 18.1867 98.8054 17.216L99.0934 13.536H105.045ZM114.457 17.568C114.457 17.6747 114.441 17.952 114.409 18.4H109.097C109.161 19.2213 109.375 19.808 109.737 20.16C110.1 20.512 110.58 20.688 111.177 20.688C111.551 20.688 111.903 20.6293 112.233 20.512C112.564 20.384 112.916 20.192 113.289 19.936L114.137 21.104C113.199 21.8613 112.153 22.24 111.001 22.24C109.711 22.24 108.713 21.8453 108.009 21.056C107.316 20.2667 106.969 19.1893 106.969 17.824C106.969 16.96 107.119 16.1867 107.417 15.504C107.716 14.8107 108.148 14.272 108.713 13.888C109.279 13.4933 109.951 13.296 110.729 13.296C111.913 13.296 112.831 13.6747 113.481 14.432C114.132 15.1787 114.457 16.224 114.457 17.568ZM112.425 16.976C112.425 15.4933 111.876 14.752 110.777 14.752C110.276 14.752 109.881 14.9387 109.593 15.312C109.316 15.6747 109.151 16.2613 109.097 17.072H112.425V16.976ZM121.207 22V18.464H118.343V22H116.295V13.536H118.343V16.912H121.207V13.536H123.255V22H121.207ZM132.772 22H130.804V18.608C130.804 17.9893 130.831 17.408 130.884 16.864C130.938 16.3093 130.996 15.8933 131.06 15.616L127.908 22H125.716V13.536H127.7V16.928C127.7 17.5147 127.668 18.096 127.604 18.672C127.551 19.248 127.492 19.6587 127.428 19.904L130.548 13.536H132.772V22ZM141.632 13.536V22H139.584V18.912H138.16L136.512 22H134.288L136.272 18.448C135.824 18.224 135.477 17.9253 135.232 17.552C134.997 17.168 134.88 16.72 134.88 16.208C134.88 15.3333 135.2 14.672 135.84 14.224C136.48 13.7653 137.397 13.536 138.592 13.536H141.632ZM139.584 17.584V14.928H138.56C137.515 14.928 136.992 15.36 136.992 16.224C136.992 16.6827 137.115 17.024 137.36 17.248C137.605 17.472 137.995 17.584 138.528 17.584H139.584Z" fill="black"/>
<path d="M156.132 8.5V24.5M156.132 8.5L153 11.6315M156.132 8.5L159.263 11.6315" stroke="black"/>
<path d="M172.224 18.4068L169.263 14.5932H175.184L172.224 18.4068Z" fill="#FFBD12"/>
</svg>
