<svg width="25" height="24" viewBox="0 0 25 24" fill="none" xmlns="http://www.w3.org/2000/svg">
<g clip-path="url(#clip0)">
<path d="M12.0433 11.5609C13.6316 11.5609 15.0069 10.9912 16.1306 9.86733C17.2543 8.74362 17.824 7.36868 17.824 5.78025C17.824 4.19237 17.2543 2.81725 16.1304 1.69317C15.0065 0.569639 13.6314 0 12.0433 0C10.4549 0 9.07996 0.569639 7.95624 1.69335C6.83252 2.81707 6.2627 4.19218 6.2627 5.78025C6.2627 7.36868 6.83252 8.7438 7.95642 9.86751C9.08032 10.991 10.4554 11.5609 12.0433 11.5609Z" fill="white"/>
<path d="M22.1579 18.4547C22.1255 17.9871 22.0599 17.477 21.9634 16.9383C21.866 16.3955 21.7406 15.8825 21.5905 15.4136C21.4354 14.9289 21.2244 14.4502 20.9637 13.9916C20.6931 13.5155 20.3752 13.1009 20.0185 12.7598C19.6455 12.403 19.1888 12.116 18.6608 11.9067C18.1345 11.6985 17.5513 11.5931 16.9275 11.5931C16.6825 11.5931 16.4456 11.6936 15.988 11.9915C15.7064 12.1752 15.377 12.3876 15.0093 12.6225C14.6949 12.8228 14.269 13.0105 13.7429 13.1804C13.2297 13.3465 12.7086 13.4307 12.1942 13.4307C11.6799 13.4307 11.1589 13.3465 10.6451 13.1804C10.1196 13.0107 9.69373 12.823 9.3797 12.6227C9.0155 12.39 8.68591 12.1775 8.40009 11.9913C7.94305 11.6934 7.70593 11.5929 7.46094 11.5929C6.83691 11.5929 6.25391 11.6985 5.72784 11.9069C5.20013 12.1158 4.74329 12.4028 4.36993 12.76C4.01343 13.1013 3.69537 13.5157 3.42511 13.9916C3.16455 14.4502 2.95361 14.9287 2.79834 15.4137C2.64838 15.8827 2.52295 16.3955 2.42554 16.9383C2.32904 17.4762 2.26349 17.9865 2.23108 18.4553C2.19922 18.9145 2.18311 19.3911 2.18311 19.8725C2.18311 21.1253 2.58136 22.1395 3.3667 22.8875C4.14233 23.6256 5.16864 24.0001 6.41669 24.0001H17.9728C19.2209 24.0001 20.2468 23.6258 21.0226 22.8875C21.8082 22.1401 22.2064 21.1257 22.2064 19.8723C22.2062 19.3888 22.1899 18.9118 22.1579 18.4547Z" fill="white"/>
</g>
<defs>
<clipPath id="clip0">
<rect width="24" height="24" fill="white" transform="translate(0.214355)"/>
</clipPath>
</defs>
</svg>
