<svg width="17" height="16" viewBox="0 0 17 16" fill="none" xmlns="http://www.w3.org/2000/svg">
<g clip-path="url(#clip0)">
<path d="M16.7188 14.9597L12.0709 10.3118C12.9524 9.22342 13.4831 7.8398 13.4831 6.33336C13.4831 2.84116 10.6419 0 7.14973 0C3.65754 0 0.816406 2.84116 0.816406 6.33336C0.816406 9.82555 3.65757 12.6667 7.14976 12.6667C8.6562 12.6667 10.0398 12.136 11.1282 11.2545L15.7761 15.9024C15.9063 16.0325 16.1173 16.0325 16.2475 15.9024L16.7188 15.4311C16.8489 15.3009 16.8489 15.0898 16.7188 14.9597ZM7.14976 11.3334C4.3926 11.3334 2.14975 9.09052 2.14975 6.33336C2.14975 3.5762 4.3926 1.33335 7.14976 1.33335C9.90693 1.33335 12.1498 3.5762 12.1498 6.33336C12.1498 9.09052 9.90693 11.3334 7.14976 11.3334Z" fill="white"/>
</g>
<defs>
<clipPath id="clip0">
<rect width="16" height="16" fill="white" transform="translate(0.816406)"/>
</clipPath>
</defs>
</svg>
