<?xml version="1.0" encoding="utf-8"?><svg xmlns="http://www.w3.org/2000/svg" xmlns:xlink="http://www.w3.org/1999/xlink"><symbol viewBox="0 0 21 25" id="arrow-left" xmlns="http://www.w3.org/2000/svg"><path d="M20.436 12.5H1.564m0 0L12.801 1.263M1.564 12.5l11.237 11.237"/></symbol><symbol viewBox="0 0 21 25" id="arrow-right" xmlns="http://www.w3.org/2000/svg"><path d="M.564 12.5h18.872m0 0L8.199 1.263M19.436 12.5L8.199 23.737"/></symbol><symbol viewBox="0 0 352 512" class="csvg-inline--fa cfa-times cfa-w-11" id="cross" xmlns="http://www.w3.org/2000/svg"><path d="M242.72 256l100.07-100.07c12.28-12.28 12.28-32.19 0-44.48l-22.24-22.24c-12.28-12.28-32.19-12.28-44.48 0L176 189.28 75.93 89.21c-12.28-12.28-32.19-12.28-44.48 0L9.21 111.45c-12.28 12.28-12.28 32.19 0 44.48L109.28 256 9.21 356.07c-12.28 12.28-12.28 32.19 0 44.48l22.24 22.24c12.28 12.28 32.2 12.28 44.48 0L176 322.72l100.07 100.07c12.28 12.28 32.2 12.28 44.48 0l22.24-22.24c12.28-12.28 12.28-32.19 0-44.48L242.72 256z"/></symbol><symbol viewBox="0 0 18 18" id="cross2" xmlns="http://www.w3.org/2000/svg"><path d="M18 1.8L16.2 0 9 7.2 1.8 0 0 1.8 7.2 9 0 16.2 1.8 18 9 10.8l7.2 7.2 1.8-1.8L10.8 9 18 1.8z"/></symbol><symbol viewBox="0 0 17 16" id="zoom" xmlns="http://www.w3.org/2000/svg"><g clip-path="url(#eclip0)"><path d="M16.719 14.96l-4.648-4.648a6.301 6.301 0 001.412-3.979A6.34 6.34 0 007.15 0 6.34 6.34 0 00.816 6.333a6.34 6.34 0 006.334 6.334c1.506 0 2.89-.531 3.978-1.412l4.648 4.647c.13.13.341.13.471 0l.472-.47a.333.333 0 000-.472zm-9.57-3.627c-2.756 0-5-2.242-5-5 0-2.757 2.244-5 5-5 2.758 0 5 2.243 5 5 0 2.758-2.242 5-5 5z"/></g><defs><clipPath id="eclip0"><path transform="translate(.816)" d="M0 0h16v16H0z"/></clipPath></defs></symbol></svg>